<svg width="144" height="143" viewBox="0 0 144 143" fill="none" xmlns="http://www.w3.org/2000/svg">
<g opacity="0.5" clip-path="url(#clip0_697_710)">
<path d="M103.814 111.153C81.897 128.583 49.856 124.929 32.4261 103.012C14.9961 81.0942 18.6503 49.0532 40.5677 31.6233C62.4851 14.1933 94.5261 17.8475 111.956 39.7649C129.386 61.6823 125.732 93.7233 103.814 111.153ZM42.115 33.5688C21.2497 50.162 17.7785 80.5991 34.3716 101.464C50.9648 122.33 81.4218 125.785 102.267 109.208C123.132 92.6145 126.588 62.1575 110.01 41.3122C93.4173 20.447 62.9802 16.9757 42.115 33.5688Z" fill="#FDB106"/>
<path d="M102.791 41.933C102.573 42.1066 102.291 42.2009 102.022 42.1882C71.7091 42.2152 45.8712 67.4298 35.9906 92.3341C35.815 92.7654 35.3981 93.0969 34.9266 93.1153C34.4353 93.1496 33.9964 92.8829 33.7718 92.4782C28.8498 83.5587 24.8154 74.6141 28.6246 69.7051C28.7279 69.5905 28.8511 69.4601 28.986 69.3853C31.1883 68.12 32.6366 63.1765 34.1531 57.9518C36.2338 50.7878 38.8426 41.8426 44.8778 37.043C50.8336 32.3066 58.1361 31.7495 65.2206 31.2035C70.4469 30.8067 75.364 30.4288 79.2997 28.3684C86.4676 25.0339 98.1909 35.415 102.895 40.0674C103.251 40.4329 103.372 40.9522 103.173 41.4349C103.077 41.6406 102.95 41.8067 102.791 41.933ZM60.7815 55.2482C71.7203 46.549 84.8221 40.5696 99.0061 39.8224C92.4001 33.7978 84.5913 28.665 80.4142 30.6256C76.0937 32.8949 70.923 33.28 65.4391 33.7196C58.739 34.2192 51.8169 34.7656 46.4566 39.0283C41.017 43.3542 38.6443 51.4959 36.5595 58.6956C34.867 64.514 33.3906 69.5446 30.4854 71.4337C27.852 75.2131 31.9114 83.7815 34.7205 89.0662C40.1043 76.6827 49.2272 64.4368 60.7815 55.2482Z" fill="#FDB106"/>
<path d="M90.5438 111.174C90.4644 111.237 90.385 111.301 90.2898 111.344C75.6332 117.976 58.5572 116.065 45.7425 106.39C45.3433 106.091 45.1665 105.584 45.2946 105.093C45.4228 104.602 45.824 104.251 46.3035 104.161C49.3552 103.679 52.4824 101.743 55.7883 99.6647C61.4236 96.1554 67.2534 92.5239 73.9118 94.1317C79.533 95.4949 85.2066 100.673 90.8377 109.547C91.019 109.857 91.0853 110.225 90.9733 110.573C90.8736 110.815 90.7225 111.032 90.5438 111.174ZM49.3725 105.901C60.7872 113.449 75.2303 114.862 87.9376 109.65C82.9524 102.077 78.0372 97.6891 73.3304 96.5385C67.7092 95.1754 62.308 98.5308 57.1171 101.784C54.5733 103.353 51.9898 104.954 49.3725 105.901Z" fill="#FDB106"/>
<path d="M63.9721 62.887C61.5577 64.9043 59.2538 67.0605 57.033 69.2804C54.7765 71.4962 52.6504 73.8351 50.5757 76.198C46.4024 80.9752 42.5769 86.0268 38.7906 91.2092C41.5763 85.4614 44.9674 79.9451 48.8921 74.8146C50.8288 72.2374 52.9473 69.8073 55.1487 67.4408C57.366 65.0942 59.7136 62.8707 62.1758 60.7506C64.6696 58.6702 67.2581 56.7089 69.9689 54.942C72.6954 53.195 75.5325 51.587 78.4994 50.2646C84.4018 47.58 90.7569 45.8317 97.1832 45.5176C90.9318 46.9889 85.007 49.2377 79.4683 52.2164C76.7147 53.7256 74.0044 55.3301 71.452 57.133C68.8482 58.912 66.3549 60.83 63.9721 62.887Z" fill="#FDB106"/>
<path d="M106.588 98.5444C106.39 98.7023 106.144 98.8006 105.89 98.8078C105.526 98.8384 105.181 98.6908 104.941 98.4287C97.8471 91.139 94.2098 84.5684 94.1509 78.9113C94.0836 72.0619 98.9346 67.1995 103.623 62.499C106.435 59.6788 109.085 57.0204 110.211 54.116C110.391 53.6491 110.843 53.3216 111.33 53.3231C111.837 53.3087 112.308 53.6151 112.509 54.0712C118.812 68.7625 116.608 85.7148 106.795 98.3152C106.711 98.414 106.648 98.497 106.588 98.5444ZM111.187 57.5851C109.671 59.9575 107.49 62.1458 105.368 64.2867C101.046 68.6317 96.5445 73.1188 96.607 78.9026C96.6448 83.6366 99.7025 89.2746 105.689 95.6618C113.68 84.6407 115.722 70.3777 111.187 57.5851Z" fill="#FDB106"/>
<path d="M51.3184 98.8117C52.2077 98.1369 53.7079 97.1707 54.7795 96.4806L52.8105 93.801C51.8928 94.7253 50.8396 95.8869 50.5644 96.5595C50.2133 97.4221 50.801 98.2834 51.3184 98.8117Z" fill="#FDB106"/>
<path d="M58.6202 94.3011C60.9721 93.3057 61.1982 93.2232 62.7006 92.871C62.8711 92.8002 63.0615 92.7136 63.2321 92.6428L60.9772 88.8294L56.3436 91.1532L58.6202 94.3011Z" fill="#FDB106"/>
<path d="M70.0517 86.5066C68.3068 85.8202 66.1894 86.4994 64.9956 86.995L67.0866 91.2952C69.2274 90.727 71.3912 90.4322 73.5225 90.4226C73.122 89.1855 72.1964 87.3289 70.0517 86.5066Z" fill="#FDB106"/>
<path d="M101.069 56.395C100.352 56.5118 98.9832 57.2763 97.876 57.9624L100.043 60.4842C100.957 59.5955 102.236 58.3514 103.094 57.6368C102.676 57.0295 101.989 56.2472 101.069 56.395Z" fill="#FDB106"/>
<path d="M94.5003 60.8087L91.1929 64.8001L94.4007 67.8557C94.5081 67.7055 94.6154 67.5553 94.7427 67.3893C95.4241 66.0048 95.5554 65.8031 97.0549 63.7357L94.5003 60.8087Z" fill="#FDB106"/>
<path d="M89.9007 77.3975C90.39 75.3232 91.1644 73.2814 92.2 71.3235L88.4811 68.3179C87.7492 69.3536 86.5908 71.2795 86.8667 73.1342C87.2048 75.3932 88.7855 76.7288 89.9007 77.3975Z" fill="#FDB106"/>
</g>
<defs>
<clipPath id="clip0_697_710">
<rect width="101.613" height="101.613" fill="white" transform="translate(0.802734 63.2466) rotate(-38.4937)"/>
</clipPath>
</defs>
</svg>
