<svg width="221" height="72" viewBox="0 0 221 72" fill="none" xmlns="http://www.w3.org/2000/svg">
<g opacity="0.5" clip-path="url(#clip0_701_584)">
<path d="M2.71048 57.9587C2.90136 58.3402 2.97772 58.6836 3.09224 59.1033C3.1686 59.3704 3.24495 59.6375 3.35947 59.9428L3.51218 60.4388C3.58853 60.6296 3.66488 60.7822 3.74123 60.973L4.04664 61.3927L4.46657 61.4308C4.61928 61.4308 4.77198 61.469 4.92468 61.469H5.15374L6.87165 61.5453C11.5673 61.6979 15.9957 61.6979 19.6987 61.5072C23.5545 61.9269 30.0826 62.3084 35.3127 62.6518C38.4813 62.8426 41.2299 63.0334 42.8715 63.1478C46.7272 68.7186 53.0644 72.0381 59.8216 72.0381C66.006 72.0381 71.9615 69.1765 75.8554 64.407L109.603 63.5676C110.443 63.5676 126.477 63.6439 142.396 63.6057C154.841 63.5676 163.087 63.4913 167.783 63.4149H168.126C168.546 63.4149 169.31 63.4531 170.112 63.5294L171.524 63.6057C175.418 68.9094 181.603 72.0763 188.169 72.0763C198.629 72.0763 207.6 63.9873 208.707 53.6471C209.127 53.3037 209.585 52.9602 210.044 52.5787C214.319 49.2591 219.129 45.5199 220.733 36.5914C221.076 34.5692 220.962 28.1208 220.046 26.1367C218.9 23.5803 218.175 22.8935 217.717 22.7027L217.411 22.6264C217.373 22.6264 217.373 22.6264 217.335 22.6264H217.106C216.495 22.5882 214.854 22.5501 214.09 22.5501H214.052C211.532 21.558 203.897 19.1161 196.529 16.7504C191.872 15.2623 187.214 13.7361 183.779 12.5914C182.481 12.0191 180.877 11.4467 179.159 10.8744C172.555 8.62321 159.995 4.61685 150.26 2.97615C141.671 1.52623 128.08 0 118.383 0C114.68 0 111.779 0.228935 109.794 0.686804L104.602 2.09857C90.9349 6.02862 83.5669 9.95866 72.8013 20.4515C67.3804 20.5278 47.1853 21.2528 35.3508 22.3211C24.089 23.3513 4.46657 27.93 0 46.779V46.9316C0 47.0461 0.0381758 48.2671 1.83244 55.3641L2.71048 57.9587ZM14.3923 56.6614C9.0095 56.7377 6.83348 56.6614 5.99361 56.585V56.4706H4.92468C4.77198 56.1272 4.65745 55.8601 4.50475 55.593C4.31387 55.2114 4.16117 54.868 4.00846 54.4483C8.81862 53.9523 11.8345 53.7615 14.0487 53.6089C15.3085 53.5326 16.3393 53.4563 17.2173 53.38C17.5991 53.3418 17.6754 53.4181 17.6754 53.6089C17.6372 54.6009 16.1484 56.6232 14.3923 56.6614ZM19.1261 58.2639C18.897 58.3021 18.5916 58.3402 18.2099 58.3402C18.7062 57.7297 19.2025 56.8521 19.6224 55.9364C19.4697 56.6995 19.317 57.4626 19.1261 58.2639ZM59.8979 68.0699C50.6975 68.0699 43.1769 60.5914 43.1769 51.3577C43.1769 42.1622 50.6593 34.6455 59.8979 34.6455C69.1365 34.6455 76.6189 42.124 76.6189 51.3577C76.6189 60.5914 69.1365 68.0699 59.8979 68.0699ZM188.207 68.0699C179.007 68.0699 171.486 60.5914 171.486 51.3577C171.486 42.1622 178.968 34.6455 188.207 34.6455C197.407 34.6455 204.928 42.124 204.928 51.3577C204.928 60.5914 197.445 68.0699 188.207 68.0699ZM218.251 31.7075C218.824 40.6741 212.869 47.1606 208.784 49.6407C208.402 44.9094 206.34 40.4451 203.057 37.0493C204.241 37.3164 205.462 37.4308 206.684 37.4308C210.731 37.4308 214.548 36.0191 216.839 33.6153C217.45 33.0429 217.908 32.3943 218.251 31.7075ZM214.663 25.8315C215.808 25.7552 216.572 25.9078 216.762 26.2512C216.992 26.6709 216.113 28.3879 216.113 28.3879C214.93 33.6916 208.516 34.1113 206.57 34.1113C204.47 34.1113 202.332 33.7297 200.843 33.0429C197.293 31.4785 192.941 30.5246 189.238 30.5246C187.825 30.5246 186.604 30.6391 185.573 30.9062C175.303 32.2416 167.554 41.0175 167.554 51.3577C167.554 54.3339 168.203 57.2719 169.424 59.9428C158.239 60.0954 137.624 60.1717 120.598 60.1717C116.665 60.1717 112.962 60.1717 109.527 60.1717L78.4514 60.4388C79.8257 57.6153 80.551 54.4865 80.551 51.3577C80.551 39.9873 71.2743 30.7154 59.8979 30.7154C48.5215 30.7154 39.2448 39.9873 39.2448 51.3577C39.2448 54.2575 39.8174 57.0048 40.9627 59.6375C36.3816 59.256 26.8758 58.4165 22.7146 57.7297C23.2873 54.2194 24.4325 50.8235 25.8069 48.496C34.0529 34.531 45.7728 31.7456 50.7739 30.5628C59.0962 28.6168 84.674 27.5866 96.0123 27.5866C96.5849 27.5866 97.1194 27.5866 97.6156 27.5866C98.8373 27.5866 99.9062 27.6248 100.708 27.6248C101.395 28.8076 101.891 30.0286 102.273 31.3259C103.037 33.9587 103.266 36.8967 103.075 40.6741C102.96 42.849 102.54 45.1765 102.159 47.4277C101.968 48.4579 101.777 49.4881 101.662 50.4801C100.975 55.1351 103.227 57.1955 104.258 57.8442C105.098 58.4165 106.243 58.6455 107.541 58.6073L107.465 57.1574H107.427C106.587 57.1574 104.564 56.2416 103.876 54.8299C103.38 53.7997 103.495 52.655 103.647 51.3959C103.686 51.0525 103.724 50.7091 103.762 50.3657C103.876 48.8394 104.258 47.2369 104.602 45.6725C104.984 44.0318 105.365 42.3529 105.48 40.6741V40.4451C105.594 38.9571 105.671 38.0032 105.594 36.4006C105.518 34.3402 105.289 32.6614 104.945 31.2496C104.831 30.7917 104.755 30.2575 104.678 29.7234C104.564 28.9984 104.487 28.2353 104.258 27.5485C114.146 27.4722 144.763 26.8617 159.766 26.5564L164.462 26.4801C163.66 31.8601 160.568 44.4897 149.115 52.4642C146.252 54.4865 145.297 54.9444 141.747 55.4404C138.387 55.8982 134.799 56.2416 130.485 56.4706C126.667 56.6614 112.848 57.2719 112.848 57.2719L112.886 58.7218C112.886 58.7218 120.025 58.6455 122.315 58.6073V58.6455C126.935 58.531 138.769 58.3402 142.854 57.9205C144.992 57.6916 152.551 56.3561 159.002 48.9157C161.217 46.3593 162.744 43.6121 164.232 40.7504C165.76 37.8506 166.981 34.8362 167.783 31.7838C168.203 30.2194 168.546 28.655 168.775 27.1288C168.814 26.8617 168.852 26.6327 168.89 26.3657C171.906 26.3275 177.25 26.2512 183.13 26.1749C188.703 26.0986 197.636 26.0223 204.623 25.9459C209.318 25.9078 213.212 25.8696 214.663 25.8315ZM107.694 22.0922C107.656 23.3132 105.862 24.2289 102.731 24.6105H101.548C101.09 24.6105 100.479 24.6105 99.9062 24.496C99.7917 24.4579 99.7153 24.4579 99.6771 24.4197C99.6771 24.3816 99.639 24.3816 99.639 24.3434C99.7153 24.1145 99.8298 23.8855 99.9444 23.6566L100.326 23.0843C101.204 21.7488 102.082 20.7568 103.075 19.9555C103.762 19.4213 104.411 19.0016 105.06 18.7345C105.709 18.9634 107.732 20.6423 107.694 22.0922ZM107.35 17.2464C109.336 15.8347 111.435 14.4992 113.535 13.2401C116.016 11.752 118.536 10.4547 120.941 9.31001C123.766 8.01272 126.362 7.02067 128.843 6.29571L129.722 6.06677H129.989C130.6 6.06677 131.249 6.06677 131.859 6.10493C132.814 6.14308 133.73 6.25755 134.608 6.37202C135.372 6.48649 136.173 6.63911 136.975 6.79173L137.357 6.86804C139.227 7.2496 141.098 7.63116 142.969 8.01272C146.519 8.77583 150.222 9.65342 154.001 10.6455L155.414 10.9889C158.506 11.7901 161.751 12.5914 164.729 13.7742C174.044 17.399 174.273 19.1542 174.196 19.4595C174.044 20.337 171.104 21.1002 168.585 21.2528C165.798 21.2909 150.26 21.2528 135.906 21.2528C127.813 21.2528 120.063 21.2146 115.215 21.2146C113.268 21.2146 111.741 21.2146 110.901 21.2146C110.214 20.1081 108.572 18.4293 108.19 18.0095C107.847 17.7043 107.58 17.4372 107.35 17.2464ZM133.654 3.31955C152.054 4.9221 169.272 10.4547 182.213 15.0715C182.671 15.2242 183.168 15.4149 183.664 15.6057L185.573 16.2925V16.2544C188.092 17.0938 191.07 18.0095 194.201 19.0016C198.133 20.2226 202.103 21.4436 205.31 22.5501C204.47 22.5501 203.515 22.5501 202.561 22.5501C195.46 22.5501 185.725 22.5501 183.053 22.8553C182.977 22.8553 182.9 22.8553 182.786 22.8935H182.137C181.755 22.8935 181.412 22.8935 181.144 22.8935C180.801 22.8935 180.457 22.8935 180.037 22.8935C179.656 22.8935 178.014 22.9316 175.418 23.0079C177.365 22.4356 179.007 21.558 179.197 20.1844C179.503 18.0858 177.098 14.8045 155.681 8.35612C151.558 7.09698 147.053 5.99046 143.579 5.37997C141.671 5.03657 139.8 4.73132 137.891 4.42607C137.509 4.34976 133.005 3.70111 127.851 2.89984C130.561 3.05246 132.737 3.24324 133.654 3.31955ZM90.744 10.3784C103.418 4.50238 109.259 3.2814 111.932 3.2814C112.237 3.2814 112.466 3.2814 112.619 3.31955C113.764 3.43402 116.36 3.93005 118.612 4.38792C120.063 4.65501 121.399 4.96025 122.163 5.07472C122.277 5.07472 122.43 5.11288 122.544 5.15103C117.238 7.89825 102.846 15.682 99.3336 19.4595L97.5775 20.8712C97.3102 20.9094 96.5467 20.9857 94.1798 20.9857C92.5383 20.9857 90.4768 20.9475 88.3007 20.9475C85.8957 20.9094 83.3379 20.8712 81.0855 20.8712C79.5203 20.8712 78.2223 20.8712 77.1916 20.9094C79.1385 18.5819 83.8342 13.5835 90.744 10.3784ZM18.8589 29.151C29.1663 24.3434 58.5236 23.9237 58.8672 23.9237C60.127 23.8092 69.6327 23.6566 79.5585 23.6566C87.6136 23.6566 93.7981 23.7329 97.2339 23.9237C97.2339 24.0382 97.1957 24.1526 97.1957 24.2289L94.9052 24.1908C92.271 24.1526 88.8734 24.0763 85.1321 24.0763C66.3878 24.0763 53.6371 25.5262 46.1164 28.5024C28.8991 35.3323 24.2035 44.2226 22.4474 47.6184C21.7984 48.8776 21.1876 50.4038 20.615 52.1971C20.5386 51.0525 19.7751 50.6327 19.0879 50.6327H18.897C14.6977 50.9762 12.2163 51.2432 10.2311 51.4722C7.97875 51.7011 6.33719 51.8919 3.43583 52.0445C2.90136 50.1749 2.74866 49.3736 2.55778 48.4197L3.39765 48.3816C4.31387 48.3816 5.95543 48.496 7.86422 48.6486C10.4984 48.8776 13.8197 49.1447 16.3774 49.1447C19.6224 49.1447 20.5004 48.725 20.9585 48.3052C21.9511 47.3513 22.1802 45.8251 22.4474 43.9173C22.7146 42.0095 23.0582 39.6439 24.318 37.2401C25.2724 35.4849 25.4251 33.9205 24.7761 32.814C24.2798 32.0127 23.4018 31.5548 22.3329 31.5548H21.3785C18.7443 31.5548 13.8197 31.5548 9.42943 35.2178C12.0254 32.7377 15.2322 30.6773 18.8589 29.151ZM16.9883 44.6804C16.4156 44.6041 16.0339 44.2226 15.843 43.9555C15.3849 43.3068 15.2322 42.3911 15.423 41.4372C15.7666 39.7965 17.0646 38.5755 18.3244 38.69C18.668 38.7281 19.0116 38.9189 19.2788 39.186L20.0423 39.9873C19.5842 41.5898 19.1643 43.3068 18.9734 44.9475L16.9883 44.6804ZM18.9352 45.1765C18.9352 45.2909 18.897 45.4054 18.897 45.5199C18.897 45.7488 18.5535 46.1685 16.721 46.283C16.9119 46.2067 17.1028 46.1685 17.3318 46.054L18.9352 45.1765ZM8.89497 37.7742C11.5673 35.027 15.6521 33.8824 20.8822 34.4165C20.9967 34.4165 21.0349 34.4547 21.0349 34.4928C21.3403 34.9507 20.9204 36.744 20.4623 38.3847C19.9278 36.5533 18.5153 35.256 16.7974 35.027C14.3159 34.6836 11.8727 36.6296 11.0328 39.4149C10.6511 39.1097 10.193 38.9189 9.69666 38.8808C8.36051 38.8808 7.21524 40.1781 7.10071 41.8569C7.02436 42.849 7.29159 43.7647 7.82605 44.3752C8.20781 44.8331 8.74227 45.1002 9.31491 45.1383H9.39126C10.0402 45.1383 10.6892 44.8331 11.1855 44.2226L11.3382 44.07C11.3382 44.07 11.2619 46.0922 10.8419 46.0922C9.23855 45.9777 7.44429 45.9014 5.65003 45.8251C5.6882 43.3831 6.60442 40.1781 8.89497 37.7742ZM10.8801 42.6963L10.2311 43.1924C10.1548 43.2305 10.0402 43.3068 9.9639 43.345C9.92572 43.2687 9.81119 42.9253 9.92572 42.124C9.9639 41.7806 10.0784 41.7806 10.1166 41.7806C10.3457 41.7806 10.6129 41.9714 10.6129 41.9332L10.8419 42.6582L10.8801 42.6963ZM5.42097 40.0254C3.81758 42.9634 2.59596 47.275 2.51961 47.4658L2.44325 47.6947C2.40508 47.4658 2.3669 47.2369 2.29055 46.9698C2.97772 44.5278 4.00846 42.2003 5.42097 40.0254Z" fill="#FDB106"/>
</g>
<defs>
<clipPath id="clip0_701_584">
<rect width="221" height="72" fill="white"/>
</clipPath>
</defs>
</svg>
