<svg width="60" height="88" viewBox="0 0 60 88" fill="none" xmlns="http://www.w3.org/2000/svg">
<g opacity="0.5" clip-path="url(#clip0_701_586)">
<path d="M22.946 38.6545C22.7624 38.6545 22.5789 38.6008 22.3953 38.4934L4.03866 25.4921C3.67153 25.2235 3.54041 24.74 3.72398 24.3102L7.42153 15.3114L6.21524 14.4787C5.79566 14.1832 5.69076 13.5922 5.953 13.1356L9.91279 7.06478C10.0701 6.84988 10.3061 6.71557 10.5422 6.66185C10.8044 6.60812 11.0404 6.66185 11.2502 6.82302L16.1016 10.2614L21.8971 1.28944C22.3166 0.644751 22.946 0.214958 23.6803 0.0537859C24.4408 -0.107386 25.2012 0.0537859 25.8568 0.51044C27.168 1.45061 27.5089 3.27723 26.6436 4.59347L20.8481 13.6191L26.8533 17.8633L32.6488 8.89139C33.0684 8.24671 33.6978 7.81691 34.4582 7.65574C35.2187 7.49457 35.9792 7.6826 36.6348 8.13926C37.9198 9.05257 38.2869 10.8792 37.4215 12.2223L31.5998 21.2211L36.5037 24.6863C36.9233 24.9817 37.0282 25.5727 36.7659 26.0294L32.8061 32.1002C32.675 32.3151 32.439 32.4763 32.203 32.5031C31.9408 32.5568 31.7047 32.5031 31.495 32.3419L30.3411 31.5092L23.7065 38.359C23.4443 38.5739 23.2082 38.6545 22.946 38.6545ZM5.76943 24.3371L22.8411 36.425L29.4757 29.5752C29.7904 29.2528 30.3149 29.1991 30.682 29.4677L31.7047 30.193L34.6156 25.7339L29.738 22.2687C29.3184 21.9732 29.2135 21.3822 29.4757 20.9256L35.7957 11.1209C36.0841 10.6643 35.9792 10.0465 35.5334 9.72412C35.3236 9.56294 35.0614 9.50922 34.7992 9.56294C34.5631 9.61667 34.3533 9.75098 34.2222 9.96588L27.9023 19.7705C27.7712 19.9854 27.5352 20.1466 27.2992 20.2003C27.0369 20.254 26.8009 20.2003 26.5911 20.0391L19.0124 14.6667C18.5929 14.3712 18.488 13.7803 18.7502 13.3236L25.0701 3.51899C25.3586 3.06233 25.2537 2.44451 24.8079 2.12216C24.5981 1.96099 24.3359 1.90727 24.0736 1.96099C23.8376 2.01471 23.6278 2.14902 23.4967 2.36392L17.1768 12.1417C17.0194 12.3835 16.8096 12.5178 16.5474 12.5715C16.2852 12.6252 16.0492 12.5715 15.8394 12.4103L10.988 8.97198L8.07713 13.4311L9.12608 14.1832C9.49321 14.4518 9.62433 14.9354 9.46699 15.3651L5.76943 24.3371Z" fill="#FDB106"/>
<path d="M49.5891 88C49.3269 88 49.0909 87.8925 48.9073 87.7045L46.8094 85.4749C46.4685 85.1257 46.4423 84.5885 46.757 84.1856C50.7954 78.9743 54.9912 73.6019 54.0472 68.525C52.8671 62.2393 47.4388 57.619 40.201 56.7326C34.8252 56.0879 31.5996 58.989 27.8759 62.3467C24.9388 65.0061 21.8968 67.7191 17.7535 68.337C11.2762 69.304 5.53319 66.9133 2.41256 61.9169C2.20277 61.5946 2.01921 61.2454 1.83564 60.8962C-1.1801 55.1208 -0.445829 47.6801 3.88109 40.3199L1.78319 38.8425C1.52095 38.6544 1.36361 38.3321 1.36361 37.9829L1.6783 31.8046C1.6783 31.724 1.70452 31.6434 1.73074 31.5628L3.59263 25.7338C3.6713 25.4652 3.88109 25.2503 4.16956 25.1428C4.45802 25.0354 4.7727 25.0891 5.00872 25.2503L22.3164 37.4993C22.5524 37.6605 22.7098 37.956 22.736 38.2515C22.7622 38.547 22.6311 38.8425 22.3951 39.0305L17.8584 42.9792C17.8059 43.0329 17.7272 43.0866 17.6486 43.1135L12.2465 45.6923C11.9318 45.8266 11.5909 45.7997 11.3024 45.6117L9.51921 44.3492C8.99473 45.6117 8.39158 46.6324 7.73599 47.3309C6.08389 51.6288 6.13634 55.5238 7.89333 58.3174C9.6241 61.0842 12.8759 62.3199 16.8094 61.7289C19.0384 61.4066 21.1101 59.4993 23.5489 57.3235C27.6398 53.6434 32.701 49.0769 40.9615 50.0976C53.1818 51.5751 57.8234 59.9291 59.5804 66.6984C61.757 75.0793 55.2797 84.9914 50.0612 87.8656C49.9038 87.9731 49.7465 88 49.5891 88ZM48.7762 84.7497L49.7727 85.7973C53.9161 83.0305 59.6591 74.5689 57.7447 67.2088C56.1451 61.0305 51.8968 53.3748 40.7517 52.0317C33.3304 51.1453 28.6101 55.3895 24.8339 58.8009C22.1853 61.1917 19.8776 63.26 17.1241 63.663C12.43 64.3614 8.49648 62.8034 6.34613 59.365C4.222 55.9804 4.11711 51.387 6.08389 46.4175C6.13634 46.2832 6.21501 46.1758 6.29368 46.0952C6.68704 45.7191 7.44753 44.7521 8.20802 42.5494C8.31291 42.2539 8.5227 42.039 8.81116 41.9584C9.09963 41.8779 9.38809 41.9047 9.65033 42.0928L11.958 43.7313L16.757 41.4481L20.2447 38.4127L4.98249 27.6141L3.56641 32.1001L3.30417 37.6068L5.71676 39.2991C6.13634 39.5946 6.24123 40.1856 5.979 40.6153C1.6783 47.5189 0.760465 54.7716 3.54018 60.0366C3.69753 60.3321 3.85487 60.6276 4.03844 60.8962C6.76571 65.221 11.8007 67.2893 17.5175 66.4566C21.0839 65.9194 23.9161 63.3943 26.6433 60.923C30.3671 57.5653 34.2482 54.0732 40.4633 54.8254C48.5402 55.7924 54.6241 61.0305 55.9615 68.1758C56.958 73.8974 52.8933 79.4041 48.7762 84.7497Z" fill="#FDB106"/>
</g>
<defs>
<clipPath id="clip0_701_586">
<rect width="60" height="88" fill="white"/>
</clipPath>
</defs>
</svg>
