<svg width="30" height="30" viewBox="0 0 30 30" fill="none" xmlns="http://www.w3.org/2000/svg">
<path d="M16.7001 5.33996H6.4801C6.29103 5.32376 6.10065 5.34702 5.92104 5.40826C5.74142 5.46951 5.57649 5.5674 5.43669 5.69573C5.2969 5.82406 5.18529 5.98003 5.10894 6.15376C5.03259 6.32749 4.99316 6.51519 4.99316 6.70496C4.99316 6.89473 5.03259 7.08243 5.10894 7.25616C5.18529 7.42989 5.2969 7.58586 5.43669 7.7142C5.57649 7.84253 5.74142 7.94042 5.92104 8.00166C6.10065 8.0629 6.29103 8.08616 6.4801 8.06996H16.7001C16.8892 8.08616 17.0796 8.0629 17.2592 8.00166C17.4388 7.94042 17.6037 7.84253 17.7435 7.7142C17.8833 7.58586 17.9949 7.42989 18.0713 7.25616C18.1476 7.08243 18.187 6.89473 18.187 6.70496C18.187 6.51519 18.1476 6.32749 18.0713 6.15376C17.9949 5.98003 17.8833 5.82406 17.7435 5.69573C17.6037 5.5674 17.4388 5.46951 17.2592 5.40826C17.0796 5.34702 16.8892 5.32376 16.7001 5.33996ZM18.0701 11.82C18.0701 11.4566 17.9258 11.1081 17.6688 10.8512C17.4119 10.5943 17.0635 10.45 16.7001 10.45H6.4801C6.29103 10.4338 6.10065 10.457 5.92104 10.5183C5.74142 10.5795 5.57649 10.6774 5.43669 10.8057C5.2969 10.9341 5.18529 11.09 5.10894 11.2638C5.03259 11.4375 4.99316 11.6252 4.99316 11.815C4.99316 12.0047 5.03259 12.1924 5.10894 12.3662C5.18529 12.5399 5.2969 12.6959 5.43669 12.8242C5.57649 12.9525 5.74142 13.0504 5.92104 13.1117C6.10065 13.1729 6.29103 13.1962 6.4801 13.18H16.7001C16.8795 13.1813 17.0575 13.1471 17.2236 13.0793C17.3898 13.0116 17.5409 12.9116 17.6682 12.7852C17.7956 12.6588 17.8967 12.5084 17.9656 12.3427C18.0346 12.1771 18.0701 11.9994 18.0701 11.82ZM11.5901 18.3C11.932 18.2707 12.2504 18.1142 12.4824 17.8614C12.7144 17.6087 12.8432 17.2781 12.8432 16.935C12.8432 16.5919 12.7144 16.2612 12.4824 16.0085C12.2504 15.7557 11.932 15.5992 11.5901 15.57H6.4801C6.29103 15.5538 6.10065 15.577 5.92104 15.6383C5.74142 15.6995 5.57649 15.7974 5.43669 15.9257C5.2969 16.0541 5.18529 16.21 5.10894 16.3838C5.03259 16.5575 4.99316 16.7452 4.99316 16.935C4.99316 17.1247 5.03259 17.3124 5.10894 17.4862C5.18529 17.6599 5.2969 17.8159 5.43669 17.9442C5.57649 18.0725 5.74142 18.1704 5.92104 18.2317C6.10065 18.2929 6.29103 18.3162 6.4801 18.3H11.5901Z" fill="#333331"/>
<path d="M21.88 22.93L20.45 23.88V27.27H2.73V2.73H20.45V8.12L23.18 3.39V1.39C23.184 1.20889 23.1518 1.02881 23.0852 0.860333C23.0187 0.691852 22.9191 0.538365 22.7924 0.408882C22.6657 0.2794 22.5145 0.176532 22.3475 0.106317C22.1805 0.0361023 22.0012 -4.40384e-05 21.82 4.02651e-08H1.36C0.999306 4.02651e-08 0.653384 0.143285 0.398335 0.398335C0.143285 0.653384 0 0.999306 0 1.36L0 28.64C0 29.0007 0.143285 29.3466 0.398335 29.6017C0.653384 29.8567 0.999306 30 1.36 30H21.82C22.1807 30 22.5266 29.8567 22.7817 29.6017C23.0367 29.3466 23.18 29.0007 23.18 28.64V21.12L22.53 22.25C22.3705 22.5251 22.1476 22.7582 21.88 22.93Z" fill="#333331"/>
<path d="M30.0002 6.31986C29.8193 5.82538 29.5399 5.37278 29.1789 4.98946C28.818 4.60614 28.3829 4.3001 27.9002 4.08986C27.4711 3.78197 26.9839 3.56467 26.4681 3.4512C25.9523 3.33774 25.4189 3.33047 24.9002 3.42986C24.7379 3.47962 24.6015 3.59088 24.5202 3.73986L16.0002 18.4999C15.9494 18.5924 15.9188 18.6946 15.9102 18.7999L15.6002 24.1199C15.5954 24.2392 15.6225 24.3578 15.6789 24.4631C15.7352 24.5685 15.8187 24.6568 15.9207 24.7191C16.0227 24.7813 16.1395 24.8151 16.259 24.817C16.3785 24.8189 16.4963 24.7888 16.6002 24.7299L21.0502 21.7899C21.1422 21.7379 21.2183 21.6619 21.2702 21.5699L29.8702 6.79986C29.9735 6.66246 30.0201 6.49061 30.0002 6.31986ZM18.4002 22.3799C18.1623 22.185 17.908 22.011 17.6402 21.8599C17.3748 21.7044 17.0972 21.5706 16.8102 21.4599L16.9102 19.8599C17.4595 19.9513 17.9859 20.1482 18.4602 20.4399C18.9442 20.688 19.3754 21.0276 19.7302 21.4399L18.4002 22.3799ZM9.51021 24.5999C9.51021 24.8699 9.87021 24.9499 10.0802 25.0399C10.2902 25.1299 10.5302 24.9699 10.7002 24.8799C11.7002 24.3799 13.1502 24.9699 14.2602 24.9699C14.3757 24.9466 14.4796 24.8842 14.5543 24.793C14.6289 24.7019 14.6697 24.5877 14.6697 24.4699C14.6697 24.352 14.6289 24.2379 14.5543 24.1467C14.4796 24.0556 14.3757 23.9931 14.2602 23.9699C13.0425 23.8252 11.8147 23.7851 10.5902 23.8499C10.5799 23.739 10.5421 23.6325 10.4802 23.5399C10.4218 23.3661 10.3056 23.2176 10.1508 23.1193C9.9961 23.021 9.81231 22.9789 9.63021 22.9999C9.61298 22.9504 9.58946 22.9033 9.56021 22.8599C9.52724 22.8002 9.48143 22.7486 9.42608 22.7089C9.37074 22.6691 9.30725 22.6421 9.24021 22.6299C9.43312 22.3711 9.5656 22.0724 9.6279 21.7557C9.6902 21.439 9.68074 21.1124 9.60021 20.7999C9.55574 20.7228 9.49152 20.659 9.41417 20.6151C9.33682 20.5711 9.24916 20.5486 9.16021 20.5499C8.47021 20.5499 7.89021 21.2399 7.45021 21.6699C6.3702 22.769 5.36779 23.9419 4.45021 25.1799C4.04021 25.7099 4.93021 26.1799 5.33021 25.6999C6.16404 24.6322 7.05536 23.6107 8.00021 22.6399C7.77021 23.0099 7.53021 23.3799 7.28021 23.7299C6.91021 24.2999 7.78021 24.7799 8.16021 24.2499C8.24387 24.119 8.35685 24.0095 8.49021 23.9299C8.49021 23.9899 8.44021 24.0499 8.41021 24.1199L8.35021 24.2399C8.12021 24.8099 8.98021 25.0699 9.29021 24.6299C9.36963 24.5191 9.43986 24.4021 9.50021 24.2799C9.49498 24.3866 9.49833 24.4936 9.51021 24.5999Z" fill="#333331"/>
</svg>
