<svg width="30" height="30" viewBox="0 0 30 30" fill="none" xmlns="http://www.w3.org/2000/svg">
<g clip-path="url(#clip0_1104_480)">
<path d="M14.7402 23.2001H15.9702L15.3502 21.8101L14.7402 23.2001Z" fill="#333331"/>
<path d="M15 0C12.0333 0 9.13319 0.879735 6.66645 2.52796C4.19972 4.17618 2.27713 6.51886 1.14181 9.25975C0.00649929 12.0006 -0.290551 15.0166 0.288228 17.9264C0.867006 20.8361 2.29562 23.5088 4.3934 25.6066C6.49119 27.7044 9.16394 29.133 12.0737 29.7118C14.9834 30.2906 17.9994 29.9935 20.7403 28.8582C23.4812 27.7229 25.8238 25.8003 27.4721 23.3336C29.1203 20.8668 30 17.9667 30 15C30 11.0218 28.4197 7.20644 25.6066 4.3934C22.7936 1.58035 18.9783 0 15 0V0ZM12.69 23.14V24.46C12.6892 24.5375 12.6708 24.6138 12.6362 24.6831C12.6015 24.7524 12.5515 24.8129 12.49 24.86C11.967 25.2336 11.3427 25.4394 10.7 25.45C10.3586 25.45 10.0205 25.3827 9.70503 25.2521C9.38958 25.1214 9.10296 24.9299 8.86153 24.6885C8.6201 24.447 8.42858 24.1604 8.29792 23.845C8.16726 23.5295 8.10001 23.1914 8.10001 22.85C8.10001 22.5086 8.16726 22.1705 8.29792 21.855C8.42858 21.5396 8.6201 21.253 8.86153 21.0115C9.10296 20.7701 9.38958 20.5786 9.70503 20.4479C10.0205 20.3173 10.3586 20.25 10.7 20.25C11.3066 20.2546 11.8969 20.4467 12.39 20.8C12.4414 20.838 12.4847 20.8859 12.5173 20.9408C12.5499 20.9958 12.5712 21.0567 12.58 21.12C12.5905 21.1846 12.5879 21.2506 12.5724 21.3141C12.557 21.3776 12.5289 21.4375 12.49 21.49V21.54C12.4109 21.6404 12.2964 21.7068 12.1699 21.7254C12.0434 21.744 11.9147 21.7134 11.81 21.64C11.4999 21.4119 11.1249 21.2893 10.74 21.29C10.5253 21.2728 10.3094 21.3002 10.1058 21.3705C9.90224 21.4408 9.71543 21.5526 9.55716 21.6986C9.39889 21.8447 9.27258 22.022 9.1862 22.2193C9.09981 22.4166 9.05521 22.6296 9.05521 22.845C9.05521 23.0604 9.09981 23.2734 9.1862 23.4707C9.27258 23.668 9.39889 23.8453 9.55716 23.9914C9.71543 24.1374 9.90224 24.2492 10.1058 24.3195C10.3094 24.3898 10.5253 24.4172 10.74 24.4C11.0706 24.3961 11.3945 24.3066 11.68 24.14V23.63H10.79C10.6601 23.63 10.5354 23.5784 10.4435 23.4865C10.3516 23.3946 10.3 23.27 10.3 23.14C10.3 23.01 10.3516 22.8854 10.4435 22.7935C10.5354 22.7016 10.6601 22.65 10.79 22.65H12.2C12.33 22.65 12.4546 22.7016 12.5465 22.7935C12.6384 22.8854 12.69 23.01 12.69 23.14ZM17.78 25.2C17.7353 25.2678 17.6744 25.3234 17.6028 25.3618C17.5312 25.4002 17.4512 25.4202 17.37 25.42H17.27C17.1761 25.4212 17.084 25.3942 17.0055 25.3425C16.9271 25.2908 16.866 25.2168 16.83 25.13L16.44 24.25H14.27L13.89 25.13C13.8523 25.2176 13.7893 25.2919 13.7092 25.3436C13.629 25.3952 13.5353 25.4218 13.44 25.42H13.36C13.2872 25.4132 13.2169 25.3898 13.1545 25.3517C13.0921 25.3135 13.0393 25.2617 13 25.2C12.9631 25.1272 12.9439 25.0467 12.9439 24.965C12.9439 24.8833 12.9631 24.8028 13 24.73L14.88 20.55C14.9191 20.4655 14.981 20.3936 15.0587 20.3423C15.1364 20.2911 15.2269 20.2626 15.32 20.26H15.59C15.6845 20.2619 15.7767 20.29 15.8561 20.3412C15.9356 20.3924 15.9992 20.4647 16.04 20.55L17.91 24.73C17.9284 24.813 17.9262 24.8992 17.9035 24.9812C17.8809 25.0631 17.8384 25.1383 17.78 25.2ZM20.04 25.44C19.3807 25.4332 18.743 25.2041 18.23 24.79C18.1432 24.7198 18.083 24.622 18.0594 24.5129C18.0358 24.4038 18.0501 24.2899 18.1 24.19V24.12C18.1304 24.0536 18.1762 23.9953 18.2336 23.9501C18.291 23.9049 18.3583 23.874 18.43 23.86C18.4992 23.8445 18.5709 23.8446 18.6401 23.8601C18.7093 23.8757 18.7741 23.9064 18.83 23.95C19.1655 24.2107 19.5753 24.3578 20 24.37C20.14 24.37 20.81 24.37 20.81 23.93C20.81 23.49 20.56 23.5 19.81 23.29C19.06 23.08 18.17 22.8 18.17 21.71C18.17 20.83 18.92 20.24 20.04 20.24C20.5356 20.2429 21.0229 20.3664 21.46 20.6C21.566 20.6611 21.646 20.759 21.6847 20.8751C21.7234 20.9912 21.7182 21.1175 21.67 21.23L21.62 21.33C21.5953 21.3912 21.5574 21.4463 21.509 21.4912C21.4606 21.5361 21.4029 21.5699 21.34 21.59C21.2147 21.6396 21.0753 21.6396 20.95 21.59C20.6559 21.4383 20.3309 21.3562 20 21.35C19.84 21.35 19.29 21.35 19.29 21.69C19.29 22.03 19.54 22.11 20.23 22.32C20.92 22.53 21.89 22.82 21.88 23.94C22 24.82 21.2 25.44 20 25.44H20.04ZM18.11 15C18.1819 15.4819 18.149 15.9736 18.0137 16.4416C17.8784 16.9096 17.6438 17.343 17.3258 17.7122C17.0079 18.0813 16.6141 18.3776 16.1714 18.5809C15.7286 18.7842 15.2472 18.8896 14.76 18.89C14.2733 18.8879 13.7928 18.7814 13.3508 18.5776C12.9088 18.3738 12.5158 18.0775 12.1982 17.7087C11.8806 17.3399 11.6459 16.9073 11.5099 16.44C11.3739 15.9727 11.3399 15.4816 11.41 15H3.41001C3.41001 11.9314 4.62899 8.98857 6.79878 6.81877C8.96858 4.64898 11.9115 3.43 14.98 3.43C18.0486 3.43 20.9914 4.64898 23.1612 6.81877C25.331 8.98857 26.55 11.9314 26.55 15H18.11Z" fill="#333331"/>
<path d="M12.7502 14.7801C12.654 15.1181 12.6441 15.4749 12.7215 15.8177C12.7989 16.1605 12.9611 16.4785 13.1932 16.7423C13.4254 17.0062 13.72 17.2076 14.0502 17.328C14.3804 17.4485 14.7355 17.4842 15.083 17.4317C15.4306 17.3793 15.7594 17.2406 16.0394 17.0281C16.3193 16.8156 16.5415 16.5363 16.6855 16.2157C16.8295 15.8951 16.8908 15.5435 16.8637 15.1931C16.8365 14.8427 16.7219 14.5047 16.5302 14.2101L17.3302 6.58008L13.9102 13.4501C13.6316 13.5737 13.3833 13.7569 13.183 13.9866C12.9826 14.2164 12.8349 14.4872 12.7502 14.7801Z" fill="#333331"/>
</g>
<defs>
<clipPath id="clip0_1104_480">
<rect width="30" height="30" fill="white"/>
</clipPath>
</defs>
</svg>
