<svg width="41" height="21" viewBox="0 0 41 21" fill="none" xmlns="http://www.w3.org/2000/svg">
<g clip-path="url(#clip0_1104_475)">
<path d="M8.83006 14.2398C8.18332 14.2398 7.55109 14.4316 7.01335 14.7909C6.4756 15.1502 6.05647 15.6609 5.80897 16.2584C5.56148 16.8559 5.49672 17.5134 5.62289 18.1478C5.74907 18.7821 6.0605 19.3647 6.51782 19.822C6.97514 20.2794 7.5578 20.5908 8.19211 20.717C8.82643 20.8431 9.48392 20.7784 10.0814 20.5309C10.6789 20.2834 11.1897 19.8643 11.549 19.3265C11.9083 18.7888 12.1001 18.1566 12.1001 17.5098C12.1001 16.6425 11.7555 15.8108 11.1423 15.1976C10.5291 14.5843 9.69732 14.2398 8.83006 14.2398ZM32.7101 14.2398C32.0642 14.2438 31.4339 14.4389 30.8988 14.8006C30.3637 15.1623 29.9477 15.6744 29.7033 16.2722C29.4588 16.8701 29.3969 17.5269 29.5253 18.1599C29.6538 18.7929 29.9668 19.3737 30.4249 19.829C30.883 20.2843 31.4657 20.5938 32.0994 20.7184C32.7332 20.8429 33.3897 20.777 33.986 20.5289C34.5824 20.2809 35.0919 19.8617 35.4503 19.3244C35.8088 18.7871 36 18.1557 36.0001 17.5098C36.0001 17.0787 35.9148 16.6518 35.7492 16.2538C35.5837 15.8558 35.341 15.4944 35.0352 15.1905C34.7295 14.8866 34.3666 14.6461 33.9676 14.483C33.5685 14.3198 33.1412 14.2372 32.7101 14.2398Z" fill="#333331"/>
<path d="M31.24 8.1799C30.959 8.17501 30.6827 8.10683 30.4317 7.98045C30.1806 7.85407 29.9613 7.67272 29.79 7.4499L25.41 2.1799C24.8445 1.44933 24.1085 0.868583 23.2664 0.488522C22.4244 0.108462 21.502 -0.0593117 20.58 -0.000102152H12.84C8.4 0.149898 4.69 3.9999 3.65 7.7999C2.92231 7.91024 2.25542 8.26958 1.76306 8.81665C1.2707 9.36372 0.983343 10.0646 0.95 10.7999L0.73 13.0699C0.510032 13.1992 0.327222 13.3831 0.199315 13.6039C0.0714082 13.8247 0.0027484 14.0748 0 14.3299L0 16.9999C0.00264026 17.3827 0.156572 17.749 0.428215 18.0187C0.699857 18.2885 1.06716 18.4399 1.45 18.4399H4.3C4.23937 18.1438 4.20922 17.8422 4.21 17.5399C4.21 16.3146 4.69675 15.1395 5.56317 14.2731C6.42958 13.4066 7.6047 12.9199 8.83 12.9199C10.0553 12.9199 11.2304 13.4066 12.0968 14.2731C12.9633 15.1395 13.45 16.3146 13.45 17.5399C13.449 17.8416 13.4223 18.1427 13.37 18.4399H28.18C28.1194 18.1438 28.0892 17.8422 28.09 17.5399C28.1453 16.3505 28.6568 15.2281 29.5181 14.4059C30.3794 13.5838 31.5243 13.125 32.715 13.125C33.9057 13.125 35.0506 13.5838 35.9119 14.4059C36.7732 15.2281 37.2847 16.3505 37.34 17.5399C37.3358 17.8419 37.3057 18.143 37.25 18.4399H37.61C37.9641 18.4816 38.3231 18.4426 38.66 18.3257C38.9969 18.2088 39.3029 18.017 39.555 17.7649C39.8071 17.5127 39.9989 17.2068 40.1158 16.8699C40.2327 16.533 40.2717 16.174 40.23 15.8199C40 12.9999 38.73 8.0799 31.24 8.1799ZM14.06 6.9399C14.0677 7.05524 14.0503 7.17088 14.009 7.27885C13.9677 7.38682 13.9035 7.48457 13.8208 7.56535C13.7382 7.64613 13.6389 7.70804 13.53 7.7468C13.4211 7.78557 13.3051 7.80027 13.19 7.7899L7 7.7599C6.63 7.7599 6.19 7.4199 6.31 7.0699C6.66667 5.66463 7.45087 4.40479 8.55431 3.46436C9.65775 2.52393 11.026 1.94932 12.47 1.8199H13.23C13.3335 1.80679 13.4387 1.81634 13.5381 1.84789C13.6376 1.87944 13.729 1.93224 13.8061 2.00263C13.8831 2.07301 13.944 2.15931 13.9843 2.25553C14.0247 2.35175 14.0437 2.45561 14.04 2.5599L14.06 6.9399ZM26.33 7.7999C23.12 7.7999 19.77 7.7999 16.6 7.7299C16.06 7.7299 15.84 7.4399 15.84 6.9399V2.5499C15.84 1.9899 16.19 1.8299 16.59 1.8199H20.64C21.2134 1.7821 21.7872 1.88646 22.3105 2.12371C22.8339 2.36096 23.2906 2.72376 23.64 3.1799L26.7 6.8499C27 7.2499 26.88 7.7899 26.33 7.7999Z" fill="#333331"/>
</g>
<defs>
<clipPath id="clip0_1104_475">
<rect width="40.23" height="20.78" fill="white"/>
</clipPath>
</defs>
</svg>
