<svg width="33" height="30" viewBox="0 0 33 30" fill="none" xmlns="http://www.w3.org/2000/svg">
<g clip-path="url(#clip0_1104_486)">
<path d="M32.3902 12.6701C32.3334 12.5531 32.2456 12.4538 32.1363 12.3833C32.0269 12.3127 31.9003 12.2736 31.7702 12.2701H29.7702C29.1327 8.80734 27.2975 5.67914 24.5857 3.43331C21.874 1.18749 18.4586 -0.0328281 14.9376 -0.0139442C11.4167 0.00493962 8.01463 1.26182 5.32712 3.5366C2.63962 5.81139 0.837983 8.95909 0.237699 12.4285C-0.362585 15.898 0.276741 19.468 2.04373 22.5135C3.81072 25.559 6.59274 27.8859 9.90265 29.0866C13.2126 30.2874 16.8394 30.2855 20.1481 29.0814C23.4567 27.8772 26.2364 25.5475 28.0002 22.5001C28.0895 22.3452 28.1474 22.1741 28.1706 21.9968C28.1938 21.8195 28.1819 21.6393 28.1354 21.4666C28.089 21.2939 28.009 21.132 27.9 20.9902C27.791 20.8484 27.6552 20.7294 27.5002 20.6401C27.3453 20.5508 27.1742 20.4929 26.9969 20.4697C26.8195 20.4465 26.6394 20.4585 26.4667 20.5049C26.2939 20.5513 26.1321 20.6313 25.9903 20.7403C25.8485 20.8493 25.7295 20.9852 25.6402 21.1401C24.2035 23.6139 21.9481 25.5084 19.2635 26.4967C16.579 27.4849 13.6336 27.5049 10.9358 26.5532C8.23805 25.6014 5.95722 23.7377 4.48704 21.2837C3.01686 18.8296 2.44959 15.9393 2.88314 13.1116C3.3167 10.284 4.72388 7.69637 6.86177 5.79555C8.99966 3.89472 11.7341 2.79994 14.5931 2.70019C17.4521 2.60043 20.2562 3.50196 22.5213 5.24915C24.7865 6.99635 26.3706 9.47956 27.0002 12.2701H25.0002C24.8701 12.2736 24.7435 12.3127 24.6342 12.3833C24.5248 12.4538 24.437 12.5531 24.3802 12.6701C24.3271 12.7873 24.3082 12.9172 24.3259 13.0446C24.3436 13.1721 24.3971 13.2919 24.4802 13.3901L27.8902 17.4801C27.9531 17.5506 28.0301 17.607 28.1163 17.6456C28.2024 17.6842 28.2958 17.7042 28.3902 17.7042C28.4846 17.7042 28.578 17.6842 28.6642 17.6456C28.7503 17.607 28.8274 17.5506 28.8902 17.4801L32.3002 13.3901C32.3817 13.2909 32.4333 13.1706 32.4493 13.0431C32.4652 12.9157 32.4447 12.7864 32.3902 12.6701Z" fill="#333331"/>
<path d="M15.0002 3.41016C14.6395 3.41016 14.2936 3.55344 14.0385 3.80849C13.7835 4.06354 13.6402 4.40946 13.6402 4.77016V13.0502C13.3289 13.2707 13.0754 13.5631 12.9013 13.9026C12.7272 14.2421 12.6376 14.6186 12.6402 15.0002C12.6427 15.6281 12.8912 16.23 13.3324 16.6768C13.7736 17.1236 14.3724 17.3797 15.0002 17.3902C15.346 17.3849 15.6868 17.3065 16.0002 17.1602L20.7402 19.8902C20.9454 20.0141 21.1805 20.0797 21.4202 20.0802C21.7193 20.0767 22.0091 19.9754 22.2452 19.7918C22.4814 19.6082 22.651 19.3523 22.728 19.0632C22.8051 18.7742 22.7855 18.4679 22.6721 18.1911C22.5587 17.9142 22.3579 17.6821 22.1002 17.5302L17.3602 14.7902C17.3296 14.445 17.2243 14.1106 17.0517 13.8101C16.879 13.5097 16.6431 13.2503 16.3602 13.0502V4.77016C16.355 4.41107 16.2101 4.06814 15.9561 3.81421C15.7022 3.56027 15.3593 3.41532 15.0002 3.41016ZM15.0002 16.0002C14.8024 16.0002 14.6091 15.9415 14.4446 15.8316C14.2802 15.7217 14.152 15.5656 14.0763 15.3828C14.0006 15.2001 13.9808 14.999 14.0194 14.8051C14.058 14.6111 14.1532 14.4329 14.2931 14.293C14.4329 14.1532 14.6111 14.058 14.8051 14.0194C14.9991 13.9808 15.2001 14.0006 15.3829 14.0763C15.5656 14.152 15.7218 14.2801 15.8317 14.4446C15.9415 14.609 16.0002 14.8024 16.0002 15.0002C16.0002 15.2654 15.8948 15.5197 15.7073 15.7073C15.5198 15.8948 15.2654 16.0002 15.0002 16.0002Z" fill="#333331"/>
</g>
<defs>
<clipPath id="clip0_1104_486">
<rect width="32.45" height="30" fill="white"/>
</clipPath>
</defs>
</svg>
