<svg width="54" height="54" viewBox="0 0 54 54" fill="none" xmlns="http://www.w3.org/2000/svg">
<path d="M45.0117 23.2999V20.4198C45.0117 15.4053 43.0973 10.5962 39.6896 7.05046C36.2819 3.50469 31.6602 1.5127 26.841 1.5127C22.0218 1.5127 17.4001 3.50469 13.9924 7.05046C10.5847 10.5962 8.67032 15.4053 8.67032 20.4198V23.2999C7.55342 23.7953 6.60127 24.6216 5.93248 25.676C5.26368 26.7304 4.90781 27.9662 4.90918 29.2296V34.1088C4.90918 35.8163 5.56104 37.4538 6.72136 38.6611C7.88167 39.8685 9.4554 40.5467 11.0963 40.5467H11.8941C12.8359 40.5291 13.7338 40.1297 14.3967 39.4336C15.0597 38.7374 15.4353 37.7995 15.4436 36.8195V26.5358C15.4393 25.5413 15.0566 24.589 14.3792 23.8873C13.7018 23.1856 12.7849 22.7917 11.829 22.7917H11.6662V20.4198C11.6662 16.2501 13.2581 12.2511 16.0917 9.30265C18.9253 6.35419 22.7685 4.69777 26.7759 4.69777C30.7832 4.69777 34.6264 6.35419 37.46 9.30265C40.2936 12.2511 41.8855 16.2501 41.8855 20.4198V22.7917H41.7227C40.7896 22.8267 39.9058 23.236 39.2563 23.934C38.6067 24.6319 38.242 25.5643 38.2384 26.5358V36.8195C38.2391 37.7005 38.5357 38.5534 39.0768 39.2309C39.6179 39.9084 40.3695 40.3678 41.2017 40.5298C40.8681 41.966 40.099 43.2523 39.0081 44.1982C37.9172 45.1441 36.5626 45.6994 35.1448 45.7818C35.0428 45.6105 34.9166 45.4563 34.7703 45.3244C34.475 44.9888 34.115 44.7218 33.7138 44.5408C33.3126 44.3598 32.8793 44.2689 32.442 44.274H29.3159C28.8478 44.1886 28.3674 44.2109 27.9085 44.3393C27.4496 44.4677 27.0233 44.699 26.6594 45.0171C26.2955 45.3351 26.003 45.7322 25.8023 46.1804C25.6016 46.6286 25.4976 47.117 25.4976 47.6115C25.4976 48.106 25.6016 48.5944 25.8023 49.0426C26.003 49.4908 26.2955 49.8879 26.6594 50.2059C27.0233 50.524 27.4496 50.7553 27.9085 50.8837C28.3674 51.0121 28.8478 51.0344 29.3159 50.9491H32.442C33.0775 50.9405 33.6967 50.7386 34.2232 50.3683C34.7498 49.9981 35.1607 49.4755 35.4053 48.8652C37.6054 48.684 39.6817 47.733 41.296 46.1671C42.9103 44.6012 43.9674 42.5127 44.2953 40.2418C45.5786 39.8608 46.7086 39.0571 47.5159 37.9514C48.3232 36.8457 48.7642 35.4974 48.7728 34.1088V29.1957C48.7678 27.9381 48.409 26.7096 47.7406 25.6619C47.0722 24.6141 46.1235 23.793 45.0117 23.2999Z" fill="#333331"/>
<path d="M14.9383 25.7769C14.5531 25.3432 14.0513 25.0343 13.4953 24.8886C12.9392 24.7429 12.3533 24.7667 11.8105 24.9572C9.71515 25.514 7.61982 27.5708 8.22717 33.2309C8.83451 38.891 11.9471 38.6281 12.9037 38.6281C13.3488 38.6335 13.7902 38.5448 14.2 38.3676C14.6098 38.1905 14.979 37.9286 15.2844 37.5987C15.5897 37.2688 15.8246 36.878 15.9741 36.4509C16.1236 36.0238 16.1845 35.5698 16.153 35.1176C16.2896 32.071 16.3048 26.6429 14.9383 25.7769Z" fill="#FDB106"/>
<path d="M40.021 25.777C40.4038 25.3446 40.9029 25.0364 41.4563 24.8907C42.0098 24.7449 42.593 24.7681 43.1336 24.9574C45.2441 25.5141 47.3395 27.5709 46.7321 33.231C46.1248 38.8911 42.997 38.6282 42.0556 38.6282C41.6098 38.636 41.1673 38.5489 40.7565 38.3725C40.3456 38.1962 39.9755 37.9344 39.6696 37.604C39.3638 37.2735 39.129 36.8817 38.9804 36.4536C38.8317 36.0255 38.7724 35.5705 38.8063 35.1177C38.6697 32.0712 38.6393 26.643 40.021 25.777Z" fill="#FDB106"/>
</svg>
