<svg width="44" height="44" viewBox="0 0 44 44" fill="none" xmlns="http://www.w3.org/2000/svg">
<path d="M24.5269 7.8352H9.47975C8.96939 7.86502 8.48973 8.08852 8.13894 8.45996C7.78816 8.8314 7.59277 9.3227 7.59277 9.8333C7.59277 10.3439 7.78816 10.8352 8.13894 11.2066C8.48973 11.5781 8.96939 11.8016 9.47975 11.8314H24.5269C24.7994 11.8473 25.0724 11.8075 25.3289 11.7142C25.5855 11.621 25.8203 11.4764 26.0189 11.2893C26.2176 11.1022 26.3758 10.8766 26.4839 10.6262C26.5921 10.3758 26.6479 10.106 26.6479 9.8333C26.6479 9.56061 26.5921 9.2908 26.4839 9.04043C26.3758 8.79005 26.2176 8.56438 26.0189 8.37728C25.8203 8.19018 25.5855 8.04558 25.3289 7.95236C25.0724 7.85915 24.7994 7.81928 24.5269 7.8352Z" fill="#333331"/>
<path d="M26.5234 17.3306C26.5243 17.0681 26.4733 16.808 26.3733 16.5652C26.2734 16.3224 26.1264 16.1017 25.9408 15.9157C25.7553 15.7298 25.5348 15.5823 25.2921 15.4816C25.0493 15.3809 24.7891 15.3291 24.5262 15.3291H9.4791C8.94761 15.3291 8.43788 15.54 8.06206 15.9153C7.68623 16.2907 7.4751 16.7998 7.4751 17.3306C7.4751 17.8614 7.68623 18.3705 8.06206 18.7459C8.43788 19.1213 8.94761 19.3321 9.4791 19.3321H24.5262C24.7891 19.3321 25.0493 19.2803 25.2921 19.1796C25.5348 19.079 25.7553 18.9314 25.9408 18.7455C26.1264 18.5595 26.2734 18.3388 26.3733 18.096C26.4733 17.8532 26.5243 17.5931 26.5234 17.3306Z" fill="#333331"/>
<path d="M17.017 26.8255C17.2895 26.8415 17.5625 26.8016 17.8191 26.7084C18.0756 26.6152 18.3104 26.4706 18.5091 26.2835C18.7077 26.0964 18.8659 25.8707 18.9741 25.6203C19.0822 25.3699 19.138 25.1001 19.138 24.8274C19.138 24.5548 19.0822 24.2849 18.9741 24.0346C18.8659 23.7842 18.7077 23.5585 18.5091 23.3714C18.3104 23.1843 18.0756 23.0397 17.8191 22.9465C17.5625 22.8533 17.2895 22.8134 17.017 22.8293H9.49342C8.98306 22.8592 8.5034 23.0827 8.15262 23.4541C7.80183 23.8255 7.60645 24.3168 7.60645 24.8274C7.60645 25.338 7.80183 25.8293 8.15262 26.2008C8.5034 26.5722 8.98306 26.7957 9.49342 26.8255H17.017Z" fill="#333331"/>
<path d="M32.1461 33.6295L30.0463 34.9957V39.9688H4.00116V3.99619H30.0327V11.8998L34.0338 4.97304V2.00151C34.0338 1.47068 33.8227 0.961586 33.4469 0.586229C33.071 0.210873 32.5613 0 32.0298 0L2.004 0C1.47251 0 0.962782 0.210873 0.586959 0.586229C0.211135 0.961586 0 1.47068 0 2.00151L0 41.9908C0 42.5216 0.211135 43.0307 0.586959 43.4061C0.962782 43.7814 1.47251 43.9923 2.004 43.9923H32.0298C32.5613 43.9923 33.071 43.7814 33.4469 43.4061C33.8227 43.0307 34.0338 42.5216 34.0338 41.9908V30.9722L33.0831 32.6253C32.8496 33.0256 32.5295 33.3687 32.1461 33.6295Z" fill="#333331"/>
<path d="M43.9717 9.26282C43.9306 9.07838 43.5066 7.46624 40.9622 5.99756C38.4179 4.52887 36.7969 4.96606 36.6191 5.02754C36.3822 5.10235 36.1821 5.26325 36.0582 5.47839L23.5418 27.1262C23.4657 27.2601 23.4212 27.4096 23.4118 27.5633L22.9399 35.3781C22.93 35.5632 22.9717 35.7474 23.0602 35.9104C23.1487 36.0733 23.2806 36.2086 23.4414 36.3012C23.6021 36.3939 23.7854 36.4403 23.9709 36.4353C24.1564 36.4303 24.337 36.3741 24.4925 36.273L31.0311 31.9626C31.1596 31.8757 31.267 31.7613 31.3458 31.6278L43.8622 9.98009C43.9863 9.76276 44.0253 9.5072 43.9717 9.26282ZM27.0163 32.7891C26.3109 32.2208 25.5249 31.7604 24.684 31.4229L24.8208 29.0867C25.6283 29.213 26.4026 29.4986 27.0984 29.9269C27.8186 30.3163 28.4554 30.8432 28.9724 31.4776L27.0163 32.7891Z" fill="#333331"/>
<path d="M13.9594 36.0683C14.021 36.4714 14.4861 36.5943 14.8007 36.7514C15.1153 36.9086 15.4847 36.6353 15.7035 36.5192C17.2356 35.7746 19.3012 36.649 20.9358 36.649C21.1354 36.649 21.3267 36.5698 21.4678 36.4289C21.6089 36.288 21.6882 36.0968 21.6882 35.8975C21.6882 35.6983 21.6089 35.5071 21.4678 35.3662C21.3267 35.2253 21.1354 35.1461 20.9358 35.1461C19.0276 35.1461 17.4408 34.668 15.5531 34.9754C15.5414 34.8117 15.4872 34.654 15.3958 34.5177C15.2869 34.2842 15.1059 34.0918 14.8793 33.9688C14.6527 33.8458 14.3926 33.7988 14.1373 33.8346C14.1115 33.7602 14.0771 33.6891 14.0347 33.6228C13.9853 33.538 13.9182 33.4648 13.8379 33.4082C13.7576 33.3516 13.6661 33.313 13.5696 33.2949C14.0962 32.3727 14.4382 31.3959 14.0894 30.6103C14.0207 30.4912 13.9206 30.3931 13.8 30.3269C13.6794 30.2607 13.5429 30.2287 13.4054 30.2346C12.4068 30.2346 11.5451 31.2524 10.9021 31.8809C9.31355 33.4957 7.83947 35.219 6.4906 37.0383C5.90239 37.8034 7.20875 38.548 7.79012 37.7966C9.0038 36.2088 10.3054 34.6899 11.6887 33.2471C11.3535 33.7936 11.0047 34.3332 10.6217 34.8524C10.0882 35.679 11.3604 36.3757 11.9212 35.6106C12.045 35.4209 12.2083 35.2601 12.4 35.1393L12.2906 35.4125C12.2591 35.4698 12.2317 35.5291 12.2085 35.5901C11.8734 36.4235 13.125 36.8129 13.5764 36.164C13.6908 35.9968 13.7958 35.8235 13.891 35.6448C13.9002 35.7878 13.9231 35.9297 13.9594 36.0683Z" fill="#333331"/>
<path d="M24.6836 27.2629L37.0086 6.14795C37.0086 6.14795 40.8114 7.08381 42.4187 9.42688L30.7024 30.9653C29.1574 29.1049 27.0424 27.8038 24.6836 27.2629Z" fill="#FDB106"/>
</svg>
