<svg width="54" height="54" viewBox="0 0 54 54" fill="none" xmlns="http://www.w3.org/2000/svg">
<path fill-rule="evenodd" clip-rule="evenodd" d="M44.5514 23.6111L41.5625 13.7158C40.6689 10.7647 39.0296 9 35.5784 9H19.4196C15.9684 9 14.3291 10.7647 13.4355 13.7158L10.4465 23.6111L8.01839 28.2306C7.35664 29.7663 7.16193 31.4559 7.45758 33.0969C7.82734 35.506 8.69014 38.2403 9.76862 39.7882C10.0979 40.2305 10.5136 40.6046 10.9917 40.8889C11.4699 41.1732 12.0009 41.362 12.5542 41.4444C19.74 42.8718 35.2579 42.8718 42.4437 41.4444C42.997 41.362 43.5281 41.1732 44.0062 40.8889C44.4844 40.6046 44.9001 40.2305 45.2293 39.7882C46.2955 38.2403 47.1706 35.4819 47.5404 33.0969C47.836 31.4559 47.6413 29.7663 46.9795 28.2306L44.5514 23.6111Z" fill="#333331"/>
<path fill-rule="evenodd" clip-rule="evenodd" d="M45.0076 42.2876C44.3326 42.6886 43.5895 42.968 42.8136 43.1127C42.413 43.197 41.994 43.2632 41.5811 43.3235V43.5463C41.5917 43.8113 41.7042 44.0627 41.8961 44.2502C42.088 44.4378 42.3452 44.5477 42.6164 44.5581H45.3897C46.6838 44.5581 47.0475 43.6306 47.029 42.7513V40.1194C46.9242 40.3061 46.8009 40.4988 46.6838 40.6795C46.2598 41.3349 45.686 41.8854 45.0076 42.2876Z" fill="#333331"/>
<path fill-rule="evenodd" clip-rule="evenodd" d="M9.99045 42.2876C9.35854 41.9104 8.81475 41.4076 8.39429 40.812C8.36347 40.7698 8.33882 40.7217 8.30801 40.6735C8.19091 40.4988 8.07382 40.3121 7.96289 40.1194V42.7573C7.96289 43.6306 8.30801 44.5642 9.60219 44.5642H12.3754C12.6466 44.5538 12.9038 44.4438 13.0957 44.2563C13.2877 44.0687 13.4002 43.8174 13.4108 43.5523V43.3295C13.0287 43.2693 12.6281 43.209 12.2522 43.1307C11.4518 42.9876 10.6851 42.7017 9.99045 42.2876Z" fill="#333331"/>
<path fill-rule="evenodd" clip-rule="evenodd" d="M8.81943 22.9909L9.28164 21.4491L8.66536 20.636V18.5281C8.66781 18.4266 8.64959 18.3257 8.61174 18.2312C8.57389 18.1367 8.51718 18.0505 8.44491 17.9776C8.37265 17.9048 8.28626 17.8467 8.19079 17.8068C8.09532 17.7668 7.99268 17.7459 7.88885 17.7451C4.36989 17.7451 3.05106 19.1605 3.00175 20.895C2.99454 20.9968 3.00963 21.0988 3.04602 21.1944C3.08241 21.29 3.13925 21.3769 3.21275 21.4493C3.28626 21.5217 3.37472 21.578 3.47225 21.6143C3.56977 21.6506 3.6741 21.6661 3.77826 21.6599H7.29106L8.59757 23.4005L8.81943 22.9909Z" fill="#333331"/>
<path fill-rule="evenodd" clip-rule="evenodd" d="M47.1089 17.7451C46.9013 17.7451 46.7023 17.8257 46.5555 17.9691C46.4087 18.1126 46.3262 18.3071 46.3262 18.51V20.618L45.71 21.431L46.1722 22.9728L46.394 23.4005L47.7005 21.6599H51.2133C51.3175 21.6661 51.4218 21.6506 51.5193 21.6143C51.6169 21.578 51.7053 21.5217 51.7788 21.4493C51.8523 21.3769 51.9092 21.29 51.9456 21.1944C51.982 21.0988 51.9971 20.9968 51.9898 20.895C51.9467 19.1785 50.6279 17.7451 47.1089 17.7451Z" fill="#333331"/>
<path d="M39.171 14.9384C38.9951 14.1894 38.5544 13.5249 37.9264 13.0622C37.2985 12.5995 36.5236 12.3681 35.7383 12.4089H19.259C18.4732 12.3691 17.6981 12.6007 17.0694 13.0632C16.4407 13.5256 15.9985 14.1894 15.8202 14.9384L13.6324 22.3042H41.365L39.171 14.9384ZM13.201 26.9237C11.5555 26.6406 9.94088 27.9957 9.58961 29.935C9.23833 31.8743 10.2798 33.7053 11.9253 33.9883C13.5708 34.2714 15.1854 32.9163 15.5367 30.977C15.888 29.0376 14.8465 27.2067 13.201 26.9237ZM45.4077 29.935C45.0565 27.9776 43.4418 26.6225 41.7963 26.9237C40.1509 27.2248 39.1094 29.0256 39.4606 30.995C39.8119 32.9645 41.4327 34.3075 43.072 34.0064C44.7113 33.7053 45.7652 31.9105 45.4077 29.9531V29.935ZM36.2252 36.825H18.7722C18.6705 36.8046 18.5648 36.8182 18.472 36.8636C18.3792 36.909 18.3048 36.9836 18.2607 37.0754C18.2165 37.1672 18.2053 37.2709 18.2288 37.3696C18.2523 37.4684 18.3091 37.5566 18.3901 37.62L19.4316 38.4933C19.5662 38.611 19.7247 38.6997 19.8967 38.7537C20.0687 38.8076 20.2504 38.8256 20.43 38.8065H34.5674C34.747 38.8256 34.9287 38.8076 35.1007 38.7537C35.2727 38.6997 35.4311 38.611 35.5658 38.4933L36.6073 37.62C36.6953 37.5598 36.7588 37.4712 36.7865 37.3697C36.8142 37.2682 36.8044 37.1604 36.7587 37.0653C36.713 36.9703 36.6344 36.894 36.5368 36.8501C36.4392 36.8061 36.3288 36.7972 36.2252 36.825Z" fill="#FDB106"/>
</svg>
