<svg width="54" height="54" viewBox="0 0 54 54" fill="none" xmlns="http://www.w3.org/2000/svg">
<path d="M27.3196 50.6393C40.1987 50.6393 50.6393 40.1987 50.6393 27.3196C50.6393 14.4406 40.1987 4 27.3196 4C14.4406 4 4 14.4406 4 27.3196C4 40.1987 14.4406 50.6393 27.3196 50.6393Z" fill="#333331"/>
<path d="M31.6471 43.1736C31.5783 43.2813 31.4839 43.3703 31.3723 43.4325C31.2607 43.4948 31.1354 43.5285 31.0076 43.5305H30.8589C30.7096 43.5327 30.563 43.49 30.4383 43.4077C30.3137 43.3255 30.2166 43.2076 30.1599 43.0695L29.565 41.7161H26.189L25.5941 43.0695C25.5357 43.2064 25.4383 43.3232 25.314 43.4052C25.1897 43.4872 25.044 43.5308 24.8951 43.5305H24.7613C24.6352 43.5301 24.5113 43.4971 24.4019 43.4345C24.2924 43.3719 24.201 43.282 24.1367 43.1736C24.074 43.0651 24.041 42.942 24.041 42.8166C24.041 42.6913 24.074 42.5682 24.1367 42.4597L27.1111 35.9606C27.1669 35.8248 27.2616 35.7085 27.3834 35.6265C27.5051 35.5444 27.6484 35.5002 27.7952 35.4995H28.2116C28.3605 35.4993 28.5062 35.5428 28.6305 35.6248C28.7548 35.7068 28.8522 35.8236 28.9106 35.9606L31.8851 42.4597C31.911 42.5891 31.9026 42.723 31.8609 42.8482C31.8191 42.9734 31.7455 43.0856 31.6471 43.1736Z" fill="#FDB106"/>
<path d="M26.9189 40.08H28.8375L27.8708 37.9087L26.9189 40.08Z" fill="#333331"/>
<path d="M23.7195 39.9759V42.0283C23.7226 42.15 23.6957 42.2706 23.6413 42.3795C23.5868 42.4884 23.5065 42.5823 23.4072 42.6529C22.6003 43.2324 21.6344 43.5492 20.641 43.5601C20.0901 43.5936 19.5383 43.5139 19.0193 43.3261C18.5004 43.1383 18.0253 42.8463 17.6234 42.4681C17.2216 42.0899 16.9013 41.6334 16.6824 41.1268C16.4635 40.6202 16.3506 40.0742 16.3506 39.5223C16.3506 38.9704 16.4635 38.4244 16.6824 37.9178C16.9013 37.4112 17.2216 36.9547 17.6234 36.5765C18.0253 36.1982 18.5004 35.9063 19.0193 35.7185C19.5383 35.5307 20.0901 35.451 20.641 35.4845C21.5861 35.4811 22.5079 35.778 23.2734 36.3322C23.3547 36.3919 23.4229 36.4675 23.4741 36.5545C23.5252 36.6414 23.5581 36.7378 23.5708 36.8379C23.5893 36.9372 23.5856 37.0394 23.5598 37.1371C23.5341 37.2348 23.4871 37.3256 23.4221 37.403V37.4922C23.3014 37.6468 23.1256 37.7486 22.9315 37.7763C22.7374 37.804 22.5402 37.7555 22.381 37.641C21.8896 37.2914 21.3035 37.0995 20.7005 37.0907C20.0576 37.0907 19.441 37.3461 18.9863 37.8007C18.5317 38.2553 18.2763 38.8719 18.2763 39.5149C18.2763 40.1578 18.5317 40.7744 18.9863 41.229C19.441 41.6836 20.0576 41.939 20.7005 41.939C21.2242 41.9336 21.7373 41.7899 22.1877 41.5226V40.7046H20.7748C20.5737 40.7046 20.3808 40.6247 20.2385 40.4825C20.0963 40.3402 20.0164 40.1473 20.0164 39.9462C20.0241 39.7502 20.1073 39.5648 20.2488 39.429C20.3902 39.2931 20.5787 39.2173 20.7748 39.2174H22.9611C23.1622 39.2174 23.3551 39.2973 23.4974 39.4396C23.6396 39.5818 23.7195 39.7747 23.7195 39.9759Z" fill="#FDB106"/>
<path d="M35.1569 43.5602C34.1336 43.5444 33.1448 43.1886 32.346 42.5489C32.2108 42.439 32.1168 42.2867 32.079 42.1166C32.0412 41.9466 32.0619 41.7688 32.1378 41.612V41.493C32.2468 41.2977 32.4285 41.1533 32.6435 41.0914C32.7544 41.0667 32.8694 41.0673 32.9801 41.093C33.0908 41.1187 33.1943 41.169 33.283 41.2402C33.801 41.6489 34.4377 41.8785 35.0974 41.8945C35.3056 41.8945 36.3615 41.8945 36.3615 41.2104C36.3615 40.5263 35.9748 40.5412 34.8743 40.214C33.7737 39.8868 32.3163 39.4555 32.3163 37.7601C32.3163 36.3918 33.4763 35.4697 35.2163 35.4697C35.9855 35.4734 36.7417 35.6675 37.4174 36.0349C37.5887 36.1242 37.7195 36.2754 37.783 36.4578C37.8466 36.6403 37.8382 36.84 37.7595 37.0164L37.6851 37.1652C37.6428 37.2594 37.5812 37.3438 37.5044 37.413C37.4275 37.4821 37.3372 37.5345 37.239 37.5667C37.1459 37.6105 37.0444 37.6332 36.9415 37.6332C36.8387 37.6332 36.7371 37.6105 36.6441 37.5667C36.1842 37.3283 35.6748 37.201 35.1569 37.1949C34.8892 37.1949 34.0414 37.1949 34.0414 37.7303C34.0414 38.2657 34.4281 38.3698 35.5287 38.697C36.6292 39.0242 38.1164 39.4852 38.1016 41.2104C38.161 42.5935 36.9564 43.5602 35.1569 43.5602Z" fill="#FDB106"/>
<path d="M32.1533 27.3199C32.2668 28.0693 32.2171 28.8345 32.0077 29.563C31.7982 30.2914 31.4339 30.9661 30.9397 31.5408C30.4455 32.1155 29.833 32.5768 29.144 32.893C28.4551 33.2091 27.7061 33.3728 26.9481 33.3729C26.4439 33.3742 25.9424 33.299 25.4608 33.1498C24.2418 32.7904 23.1939 32.0023 22.5106 30.9308C21.8272 29.8593 21.5545 28.5767 21.7428 27.3199H9.33936C9.33936 22.5511 11.2337 17.9777 14.6057 14.6057C17.9777 11.2337 22.5511 9.33936 27.3199 9.33936C32.0886 9.33936 36.662 11.2337 40.034 14.6057C43.406 17.9777 45.3004 22.5511 45.3004 27.3199H32.1533Z" fill="white"/>
<path d="M24.3257 27.2279C24.2201 27.6321 24.2164 28.0562 24.3149 28.4621C24.4135 28.8681 24.6112 29.2432 24.8904 29.554C25.1696 29.8647 25.5215 30.1013 25.9147 30.2426C26.3078 30.3838 26.7298 30.4253 27.1429 30.3634C27.5561 30.3014 27.9474 30.1379 28.2817 29.8875C28.6161 29.6371 28.8832 29.3077 29.0589 28.9287C29.2346 28.5497 29.3136 28.133 29.2887 27.716C29.2638 27.299 29.1358 26.8947 28.9162 26.5394L29.8802 17.3584L25.7717 25.6098C25.4238 25.7522 25.1128 25.9719 24.8623 26.2522C24.6117 26.5326 24.4283 26.8662 24.3257 27.2279Z" fill="#FDB106"/>
</svg>
