<svg width="54" height="54" viewBox="0 0 54 54" fill="none" xmlns="http://www.w3.org/2000/svg">
<path d="M46.9526 49.5908H9.37891V3.0481H34.0436L46.9526 14.6597V49.5908Z" fill="white"/>
<path d="M9.02631 51.0482C8.64826 51.0482 8.2857 50.898 8.01838 50.6307C7.75106 50.3634 7.60088 50.0008 7.60088 49.6228V4.77778C7.59664 4.54719 7.63813 4.31804 7.72296 4.10357C7.80779 3.88911 7.93428 3.69357 8.09511 3.52827C8.25595 3.36297 8.44794 3.23118 8.66 3.1405C8.87206 3.04983 9.09999 3.00208 9.33062 3H32.0254C32.363 3.4674 32.5527 4.0253 32.5699 4.60161V5.22623H9.77907V48.854H44.9343C44.9343 44.6418 44.9343 15.989 44.9343 15.989C45.3326 15.9374 45.7374 15.9986 46.1027 16.1657C46.4679 16.3327 46.7789 16.5989 47.0004 16.934V49.6228C47.0004 50.0008 46.8502 50.3634 46.5829 50.6307C46.3156 50.898 45.953 51.0482 45.575 51.0482H9.02631Z" fill="#333331"/>
<path d="M44.9357 13.955H38.193C37.7179 13.9765 37.2435 13.8994 36.7997 13.7285C36.3559 13.5576 35.9523 13.2966 35.6144 12.962C34.9056 12.134 34.529 11.0726 34.5573 9.983V4.60161C34.5574 4.02489 34.3721 3.46343 34.0288 3C34.6203 3.10345 35.1733 3.36337 35.6304 3.75276L45.6725 12.6096L46.169 13.01C46.4304 13.2517 46.636 13.5473 46.7715 13.8765C46.907 14.2056 46.9692 14.5603 46.9538 14.916C46.7394 14.5845 46.4373 14.3192 46.0809 14.1495C45.7246 13.9798 45.3281 13.9125 44.9357 13.955ZM42.245 12.7538C40.5275 12.6986 38.8747 12.0859 37.5363 11.008C36.6487 9.89442 36.0639 8.57033 35.8386 7.16418C35.8386 7.16418 35.8386 9.7748 35.8386 10.4475C35.9149 11.0571 36.1975 11.6223 36.6394 12.0491C37.1843 12.464 37.8448 12.6991 38.5293 12.7218C39.2661 12.7858 39.8747 12.7538 42.245 12.7538Z" fill="#333331"/>
<path d="M37.6324 27.5687L38.6735 26.0632L37.2801 24.894L37.9047 23.1803L36.3031 22.4115L36.4633 20.5857L34.6534 20.2653L34.3491 18.4715L32.5233 18.6317L31.7545 17.0301L30.0408 17.6547L28.8556 16.2453L27.3181 17.2543L25.8286 16.1973L24.6434 17.6067L22.9297 16.9821L22.1609 18.5837L20.3351 18.4235L20.0308 20.2173L18.221 20.5376L18.3811 22.3635L16.7795 23.1322L17.4041 24.8459L16.0107 26.0151L17.0518 27.5206L16.0107 29.0101L17.4041 30.1793L16.7795 31.893L18.3811 32.6778L18.221 34.4876L20.0308 34.8079L20.3351 36.6338L22.1609 36.4736L22.9297 38.0752L24.6434 37.4506L25.8286 38.844L27.3181 37.8029L28.8076 38.844L29.9928 37.4506L31.7065 38.0752L32.4753 36.4736L34.3011 36.6338L34.6054 34.84L36.4152 34.5196L36.255 32.7098L37.8567 31.925L37.2801 30.2273L38.6735 29.0582L37.6324 27.5687ZM27.3181 36.4896C25.5492 36.4928 23.8191 35.9709 22.347 34.9901C20.8748 34.0094 19.7269 32.6138 19.0485 30.9801C18.3701 29.3464 18.1917 27.5482 18.5361 25.8131C18.8804 24.078 19.7319 22.4841 20.9827 21.2333C22.2335 19.9825 23.8274 19.131 25.5625 18.7866C27.2976 18.4423 29.0958 18.6207 30.7295 19.2991C32.3632 19.9775 33.7588 21.1254 34.7396 22.5975C35.7203 24.0697 36.2422 25.7997 36.239 27.5687C36.239 29.9347 35.2991 32.2037 33.6261 33.8767C31.9531 35.5497 29.6841 36.4896 27.3181 36.4896Z" fill="#FDB106"/>
<path d="M27.3169 20.1692C25.8534 20.1692 24.4228 20.6032 23.206 21.4162C21.9892 22.2293 21.0408 23.3849 20.4807 24.737C19.9207 26.089 19.7742 27.5768 20.0597 29.0122C20.3452 30.4475 21.0499 31.766 22.0847 32.8008C23.1196 33.8356 24.438 34.5403 25.8733 34.8259C27.3087 35.1114 28.7965 34.9648 30.1485 34.4048C31.5006 33.8447 32.6562 32.8963 33.4693 31.6795C34.2824 30.4627 34.7163 29.0321 34.7163 27.5686C34.7163 25.6062 33.9367 23.7241 32.5491 22.3364C31.1614 20.9488 29.2794 20.1692 27.3169 20.1692Z" fill="#333331"/>
<path d="M33.0668 37.5146L32.2019 39.3725L30.296 38.6678L29.6714 39.4045L33.5793 44.6578L34.3801 41.3745L37.7595 41.5507L34.8766 37.6908L33.0668 37.5146Z" fill="#333331"/>
<path d="M24.339 38.6678L22.4331 39.3725L21.5682 37.5146L19.7584 37.6908L16.8755 41.5507L20.2549 41.3745L21.0557 44.6578L24.9636 39.4045L24.339 38.6678Z" fill="#333331"/>
</svg>
