<svg width="322" height="267" viewBox="0 0 322 267" fill="none" xmlns="http://www.w3.org/2000/svg">
<g opacity="0.5" clip-path="url(#clip0_1401_1808)">
<path d="M270.946 38.6545C270.762 38.6545 270.579 38.6008 270.395 38.4934L252.039 25.4921C251.672 25.2235 251.54 24.74 251.724 24.3102L255.422 15.3114L254.215 14.4787C253.796 14.1832 253.691 13.5922 253.953 13.1356L257.913 7.06478C258.07 6.84988 258.306 6.71557 258.542 6.66185C258.804 6.60812 259.04 6.66185 259.25 6.82302L264.102 10.2614L269.897 1.28944C270.317 0.644751 270.946 0.214958 271.68 0.0537859C272.441 -0.107386 273.201 0.0537859 273.857 0.51044C275.168 1.45061 275.509 3.27723 274.644 4.59347L268.848 13.6191L274.853 17.8633L280.649 8.89139C281.068 8.24671 281.698 7.81691 282.458 7.65574C283.219 7.49457 283.979 7.6826 284.635 8.13926C285.92 9.05257 286.287 10.8792 285.422 12.2223L279.6 21.2211L284.504 24.6863C284.923 24.9817 285.028 25.5727 284.766 26.0294L280.806 32.1002C280.675 32.3151 280.439 32.4763 280.203 32.5031C279.941 32.5568 279.705 32.5031 279.495 32.3419L278.341 31.5092L271.706 38.359C271.444 38.5739 271.208 38.6545 270.946 38.6545ZM253.769 24.3371L270.841 36.425L277.476 29.5752C277.79 29.2528 278.315 29.1991 278.682 29.4677L279.705 30.193L282.616 25.7339L277.738 22.2687C277.318 21.9732 277.213 21.3822 277.476 20.9256L283.796 11.1209C284.084 10.6643 283.979 10.0465 283.533 9.72412C283.324 9.56294 283.061 9.50922 282.799 9.56294C282.563 9.61667 282.353 9.75098 282.222 9.96588L275.902 19.7705C275.771 19.9854 275.535 20.1466 275.299 20.2003C275.037 20.254 274.801 20.2003 274.591 20.0391L267.012 14.6667C266.593 14.3712 266.488 13.7803 266.75 13.3236L273.07 3.51899C273.359 3.06233 273.254 2.44451 272.808 2.12216C272.598 1.96099 272.336 1.90727 272.074 1.96099C271.838 2.01471 271.628 2.14902 271.497 2.36392L265.177 12.1417C265.019 12.3835 264.81 12.5178 264.547 12.5715C264.285 12.6252 264.049 12.5715 263.839 12.4103L258.988 8.97198L256.077 13.4311L257.126 14.1832C257.493 14.4518 257.624 14.9354 257.467 15.3651L253.769 24.3371Z" fill="#FDB106"/>
<path d="M297.589 88C297.327 88 297.091 87.8925 296.907 87.7045L294.809 85.4749C294.469 85.1257 294.442 84.5885 294.757 84.1856C298.795 78.9743 302.991 73.6019 302.047 68.525C300.867 62.2393 295.439 57.619 288.201 56.7326C282.825 56.0879 279.6 58.989 275.876 62.3467C272.939 65.0061 269.897 67.7191 265.753 68.337C259.276 69.304 253.533 66.9133 250.413 61.9169C250.203 61.5946 250.019 61.2454 249.836 60.8962C246.82 55.1208 247.554 47.6801 251.881 40.3199L249.783 38.8425C249.521 38.6544 249.364 38.3321 249.364 37.9829L249.678 31.8046C249.678 31.724 249.705 31.6434 249.731 31.5628L251.593 25.7338C251.671 25.4652 251.881 25.2503 252.17 25.1428C252.458 25.0354 252.773 25.0891 253.009 25.2503L270.316 37.4993C270.552 37.6605 270.71 37.956 270.736 38.2515C270.762 38.547 270.631 38.8425 270.395 39.0305L265.858 42.9792C265.806 43.0329 265.727 43.0866 265.649 43.1135L260.246 45.6923C259.932 45.8266 259.591 45.7997 259.302 45.6117L257.519 44.3492C256.995 45.6117 256.392 46.6324 255.736 47.3309C254.084 51.6288 254.136 55.5238 255.893 58.3174C257.624 61.0842 260.876 62.3199 264.809 61.7289C267.038 61.4066 269.11 59.4993 271.549 57.3235C275.64 53.6434 280.701 49.0769 288.962 50.0976C301.182 51.5751 305.823 59.9291 307.58 66.6984C309.757 75.0793 303.28 84.9914 298.061 87.8656C297.904 87.9731 297.746 88 297.589 88ZM296.776 84.7497L297.773 85.7973C301.916 83.0305 307.659 74.5689 305.745 67.2088C304.145 61.0305 299.897 53.3748 288.752 52.0317C281.33 51.1453 276.61 55.3895 272.834 58.8009C270.185 61.1917 267.878 63.26 265.124 63.663C260.43 64.3614 256.496 62.8034 254.346 59.365C252.222 55.9804 252.117 51.387 254.084 46.4175C254.136 46.2832 254.215 46.1758 254.294 46.0952C254.687 45.7191 255.448 44.7521 256.208 42.5494C256.313 42.2539 256.523 42.039 256.811 41.9584C257.1 41.8779 257.388 41.9047 257.65 42.0928L259.958 43.7313L264.757 41.4481L268.245 38.4127L252.982 27.6141L251.566 32.1001L251.304 37.6068L253.717 39.2991C254.136 39.5946 254.241 40.1856 253.979 40.6153C249.678 47.5189 248.76 54.7716 251.54 60.0366C251.698 60.3321 251.855 60.6276 252.038 60.8962C254.766 65.221 259.801 67.2893 265.517 66.4566C269.084 65.9194 271.916 63.3943 274.643 60.923C278.367 57.5653 282.248 54.0732 288.463 54.8254C296.54 55.7924 302.624 61.0305 303.962 68.1758C304.958 73.8974 300.893 79.4041 296.776 84.7497Z" fill="#FDB106"/>
</g>
<g opacity="0.5" clip-path="url(#clip1_1401_1808)">
<path d="M103.71 252.959C103.901 253.34 103.978 253.684 104.092 254.103C104.169 254.37 104.245 254.638 104.359 254.943L104.512 255.439C104.589 255.63 104.665 255.782 104.741 255.973L105.047 256.393L105.467 256.431C105.619 256.431 105.772 256.469 105.925 256.469H106.154L107.872 256.545C112.567 256.698 116.996 256.698 120.699 256.507C124.554 256.927 131.083 257.308 136.313 257.652C139.481 257.843 142.23 258.033 143.871 258.148C147.727 263.719 154.064 267.038 160.822 267.038C167.006 267.038 172.961 264.176 176.855 259.407L210.603 258.568C211.443 258.568 227.477 258.644 243.396 258.606C255.841 258.568 264.087 258.491 268.783 258.415H269.126C269.546 258.415 270.31 258.453 271.112 258.529L272.524 258.606C276.418 263.909 282.603 267.076 289.169 267.076C299.629 267.076 308.6 258.987 309.707 248.647C310.127 248.304 310.585 247.96 311.044 247.579C315.319 244.259 320.129 240.52 321.733 231.591C322.076 229.569 321.962 223.121 321.046 221.137C319.9 218.58 319.175 217.893 318.717 217.703L318.411 217.626C318.373 217.626 318.373 217.626 318.335 217.626H318.106C317.495 217.588 315.854 217.55 315.09 217.55H315.052C312.532 216.558 304.897 214.116 297.529 211.75C292.872 210.262 288.214 208.736 284.779 207.591C283.481 207.019 281.877 206.447 280.159 205.874C273.555 203.623 260.995 199.617 251.26 197.976C242.671 196.526 229.08 195 219.383 195C215.68 195 212.779 195.229 210.794 195.687L205.602 197.099C191.935 201.029 184.567 204.959 173.801 215.452C168.38 215.528 148.185 216.253 136.351 217.321C125.089 218.351 105.467 222.93 101 241.779V241.932C101 242.046 101.038 243.267 102.832 250.364L103.71 252.959ZM115.392 251.661C110.01 251.738 107.833 251.661 106.994 251.585V251.471H105.925C105.772 251.127 105.657 250.86 105.505 250.593C105.314 250.211 105.161 249.868 105.008 249.448C109.819 248.952 112.835 248.762 115.049 248.609C116.309 248.533 117.339 248.456 118.217 248.38C118.599 248.342 118.675 248.418 118.675 248.609C118.637 249.601 117.148 251.623 115.392 251.661ZM120.126 253.264C119.897 253.302 119.592 253.34 119.21 253.34C119.706 252.73 120.202 251.852 120.622 250.936C120.47 251.7 120.317 252.463 120.126 253.264ZM160.898 263.07C151.698 263.07 144.177 255.591 144.177 246.358C144.177 237.162 151.659 229.645 160.898 229.645C170.136 229.645 177.619 237.124 177.619 246.358C177.619 255.591 170.136 263.07 160.898 263.07ZM289.207 263.07C280.007 263.07 272.486 255.591 272.486 246.358C272.486 237.162 279.968 229.645 289.207 229.645C298.407 229.645 305.928 237.124 305.928 246.358C305.928 255.591 298.445 263.07 289.207 263.07ZM319.251 226.707C319.824 235.674 313.869 242.161 309.784 244.641C309.402 239.909 307.34 235.445 304.057 232.049C305.241 232.316 306.462 232.431 307.684 232.431C311.731 232.431 315.548 231.019 317.839 228.615C318.45 228.043 318.908 227.394 319.251 226.707ZM315.663 220.831C316.808 220.755 317.572 220.908 317.762 221.251C317.992 221.671 317.113 223.388 317.113 223.388C315.93 228.692 309.516 229.111 307.57 229.111C305.47 229.111 303.332 228.73 301.843 228.043C298.293 226.479 293.941 225.525 290.238 225.525C288.825 225.525 287.604 225.639 286.573 225.906C276.303 227.242 268.554 236.017 268.554 246.358C268.554 249.334 269.203 252.272 270.424 254.943C259.239 255.095 238.624 255.172 221.598 255.172C217.665 255.172 213.962 255.172 210.527 255.172L179.451 255.439C180.826 252.615 181.551 249.486 181.551 246.358C181.551 234.987 172.274 225.715 160.898 225.715C149.521 225.715 140.245 234.987 140.245 246.358C140.245 249.258 140.817 252.005 141.963 254.638C137.382 254.256 127.876 253.417 123.715 252.73C124.287 249.219 125.433 245.824 126.807 243.496C135.053 229.531 146.773 226.746 151.774 225.563C160.096 223.617 185.674 222.587 197.012 222.587C197.585 222.587 198.119 222.587 198.616 222.587C199.837 222.587 200.906 222.625 201.708 222.625C202.395 223.808 202.891 225.029 203.273 226.326C204.037 228.959 204.266 231.897 204.075 235.674C203.96 237.849 203.54 240.176 203.159 242.428C202.968 243.458 202.777 244.488 202.662 245.48C201.975 250.135 204.227 252.196 205.258 252.844C206.098 253.417 207.243 253.645 208.541 253.607L208.465 252.157H208.427C207.587 252.157 205.564 251.242 204.876 249.83C204.38 248.8 204.495 247.655 204.647 246.396C204.686 246.052 204.724 245.709 204.762 245.366C204.876 243.839 205.258 242.237 205.602 240.672C205.984 239.032 206.365 237.353 206.48 235.674V235.445C206.594 233.957 206.671 233.003 206.594 231.401C206.518 229.34 206.289 227.661 205.945 226.25C205.831 225.792 205.755 225.258 205.678 224.723C205.564 223.998 205.487 223.235 205.258 222.548C215.146 222.472 245.763 221.862 260.766 221.556L265.462 221.48C264.66 226.86 261.568 239.49 250.115 247.464C247.252 249.486 246.297 249.944 242.747 250.44C239.387 250.898 235.799 251.242 231.485 251.471C227.667 251.661 213.848 252.272 213.848 252.272L213.886 253.722C213.886 253.722 221.025 253.645 223.315 253.607V253.645C227.935 253.531 239.769 253.34 243.854 252.921C245.992 252.692 253.551 251.356 260.002 243.916C262.217 241.359 263.744 238.612 265.232 235.75C266.76 232.851 267.981 229.836 268.783 226.784C269.203 225.219 269.546 223.655 269.775 222.129C269.814 221.862 269.852 221.633 269.89 221.366C272.906 221.328 278.25 221.251 284.13 221.175C289.703 221.099 298.636 221.022 305.623 220.946C310.318 220.908 314.212 220.87 315.663 220.831ZM208.694 217.092C208.656 218.313 206.862 219.229 203.731 219.61H202.548C202.09 219.61 201.479 219.61 200.906 219.496C200.792 219.458 200.715 219.458 200.677 219.42C200.677 219.382 200.639 219.382 200.639 219.343C200.715 219.114 200.83 218.886 200.944 218.657L201.326 218.084C202.204 216.749 203.082 215.757 204.075 214.955C204.762 214.421 205.411 214.002 206.06 213.734C206.709 213.963 208.732 215.642 208.694 217.092ZM208.35 212.246C210.336 210.835 212.435 209.499 214.535 208.24C217.016 206.752 219.536 205.455 221.941 204.31C224.766 203.013 227.362 202.021 229.843 201.296L230.722 201.067H230.989C231.6 201.067 232.249 201.067 232.859 201.105C233.814 201.143 234.73 201.258 235.608 201.372C236.372 201.486 237.173 201.639 237.975 201.792L238.357 201.868C240.227 202.25 242.098 202.631 243.969 203.013C247.519 203.776 251.222 204.653 255.001 205.645L256.414 205.989C259.506 206.79 262.751 207.591 265.729 208.774C275.044 212.399 275.273 214.154 275.196 214.459C275.044 215.337 272.104 216.1 269.585 216.253C266.798 216.291 251.26 216.253 236.906 216.253C228.813 216.253 221.063 216.215 216.215 216.215C214.268 216.215 212.741 216.215 211.901 216.215C211.214 215.108 209.572 213.429 209.19 213.01C208.847 212.704 208.58 212.437 208.35 212.246ZM234.654 198.32C253.054 199.922 270.272 205.455 283.213 210.072C283.671 210.224 284.168 210.415 284.664 210.606L286.573 211.293V211.254C289.092 212.094 292.07 213.01 295.201 214.002C299.133 215.223 303.103 216.444 306.31 217.55C305.47 217.55 304.515 217.55 303.561 217.55C296.46 217.55 286.725 217.55 284.053 217.855C283.977 217.855 283.9 217.855 283.786 217.893H283.137C282.755 217.893 282.412 217.893 282.144 217.893C281.801 217.893 281.457 217.893 281.037 217.893C280.656 217.893 279.014 217.932 276.418 218.008C278.365 217.436 280.007 216.558 280.197 215.184C280.503 213.086 278.098 209.804 256.681 203.356C252.558 202.097 248.053 200.99 244.579 200.38C242.671 200.037 240.8 199.731 238.891 199.426C238.509 199.35 234.005 198.701 228.851 197.9C231.561 198.052 233.737 198.243 234.654 198.32ZM191.744 205.378C204.418 199.502 210.259 198.281 212.932 198.281C213.237 198.281 213.466 198.281 213.619 198.32C214.764 198.434 217.36 198.93 219.612 199.388C221.063 199.655 222.399 199.96 223.163 200.075C223.277 200.075 223.43 200.113 223.544 200.151C218.238 202.898 203.846 210.682 200.334 214.459L198.577 215.871C198.31 215.909 197.547 215.986 195.18 215.986C193.538 215.986 191.477 215.948 189.301 215.948C186.896 215.909 184.338 215.871 182.086 215.871C180.52 215.871 179.222 215.871 178.192 215.909C180.139 213.582 184.834 208.583 191.744 205.378ZM119.859 224.151C130.166 219.343 159.524 218.924 159.867 218.924C161.127 218.809 170.633 218.657 180.558 218.657C188.614 218.657 194.798 218.733 198.234 218.924C198.234 219.038 198.196 219.153 198.196 219.229L195.905 219.191C193.271 219.153 189.873 219.076 186.132 219.076C167.388 219.076 154.637 220.526 147.116 223.502C129.899 230.332 125.203 239.223 123.447 242.618C122.798 243.878 122.188 245.404 121.615 247.197C121.539 246.052 120.775 245.633 120.088 245.633H119.897C115.698 245.976 113.216 246.243 111.231 246.472C108.979 246.701 107.337 246.892 104.436 247.045C103.901 245.175 103.749 244.374 103.558 243.42L104.398 243.382C105.314 243.382 106.955 243.496 108.864 243.649C111.498 243.878 114.82 244.145 117.377 244.145C120.622 244.145 121.5 243.725 121.959 243.305C122.951 242.351 123.18 240.825 123.447 238.917C123.715 237.01 124.058 234.644 125.318 232.24C126.272 230.485 126.425 228.921 125.776 227.814C125.28 227.013 124.402 226.555 123.333 226.555H122.378C119.744 226.555 114.82 226.555 110.429 230.218C113.025 227.738 116.232 225.677 119.859 224.151ZM117.988 239.68C117.416 239.604 117.034 239.223 116.843 238.955C116.385 238.307 116.232 237.391 116.423 236.437C116.767 234.796 118.065 233.576 119.324 233.69C119.668 233.728 120.012 233.919 120.279 234.186L121.042 234.987C120.584 236.59 120.164 238.307 119.973 239.948L117.988 239.68ZM119.935 240.176C119.935 240.291 119.897 240.405 119.897 240.52C119.897 240.749 119.553 241.169 117.721 241.283C117.912 241.207 118.103 241.169 118.332 241.054L119.935 240.176ZM109.895 232.774C112.567 230.027 116.652 228.882 121.882 229.417C121.997 229.417 122.035 229.455 122.035 229.493C122.34 229.951 121.92 231.744 121.462 233.385C120.928 231.553 119.515 230.256 117.797 230.027C115.316 229.684 112.873 231.63 112.033 234.415C111.651 234.11 111.193 233.919 110.697 233.881C109.361 233.881 108.215 235.178 108.101 236.857C108.024 237.849 108.292 238.765 108.826 239.375C109.208 239.833 109.742 240.1 110.315 240.138H110.391C111.04 240.138 111.689 239.833 112.186 239.223L112.338 239.07C112.338 239.07 112.262 241.092 111.842 241.092C110.239 240.978 108.444 240.901 106.65 240.825C106.688 238.383 107.604 235.178 109.895 232.774ZM111.88 237.696L111.231 238.192C111.155 238.231 111.04 238.307 110.964 238.345C110.926 238.269 110.811 237.925 110.926 237.124C110.964 236.781 111.078 236.781 111.117 236.781C111.346 236.781 111.613 236.971 111.613 236.933L111.842 237.658L111.88 237.696ZM106.421 235.025C104.818 237.963 103.596 242.275 103.52 242.466L103.443 242.695C103.405 242.466 103.367 242.237 103.291 241.97C103.978 239.528 105.008 237.2 106.421 235.025Z" fill="#FDB106"/>
</g>
<g opacity="0.5" clip-path="url(#clip2_1401_1808)">
<path d="M103.814 134.153C81.897 151.583 49.856 147.929 32.4261 126.012C14.9961 104.094 18.6503 72.0532 40.5677 54.6233C62.4851 37.1933 94.5261 40.8475 111.956 62.7649C129.386 84.6823 125.732 116.723 103.814 134.153ZM42.115 56.5688C21.2497 73.162 17.7785 103.599 34.3716 124.464C50.9648 145.33 81.4218 148.785 102.267 132.208C123.132 115.615 126.588 85.1575 110.01 64.3122C93.4173 43.447 62.9802 39.9757 42.115 56.5688Z" fill="#FDB106"/>
<path d="M102.791 64.933C102.573 65.1066 102.291 65.2009 102.022 65.1882C71.7091 65.2152 45.8712 90.4298 35.9906 115.334C35.815 115.765 35.3981 116.097 34.9266 116.115C34.4353 116.15 33.9964 115.883 33.7718 115.478C28.8498 106.559 24.8154 97.6141 28.6246 92.7051C28.7279 92.5905 28.8511 92.4601 28.986 92.3853C31.1883 91.12 32.6366 86.1765 34.1531 80.9518C36.2338 73.7878 38.8426 64.8426 44.8778 60.043C50.8336 55.3066 58.1361 54.7495 65.2206 54.2035C70.4469 53.8067 75.364 53.4288 79.2997 51.3684C86.4676 48.0339 98.1909 58.415 102.895 63.0674C103.251 63.4329 103.372 63.9522 103.173 64.4349C103.077 64.6406 102.95 64.8067 102.791 64.933ZM60.7815 78.2482C71.7203 69.549 84.8221 63.5696 99.0061 62.8224C92.4001 56.7978 84.5913 51.665 80.4142 53.6256C76.0937 55.8949 70.923 56.28 65.4391 56.7196C58.739 57.2192 51.8169 57.7656 46.4566 62.0283C41.017 66.3542 38.6443 74.4959 36.5595 81.6956C34.867 87.514 33.3906 92.5446 30.4854 94.4337C27.852 98.2131 31.9114 106.781 34.7205 112.066C40.1043 99.6827 49.2272 87.4368 60.7815 78.2482Z" fill="#FDB106"/>
<path d="M90.5438 134.174C90.4644 134.237 90.385 134.301 90.2898 134.344C75.6332 140.976 58.5572 139.065 45.7425 129.39C45.3433 129.091 45.1665 128.584 45.2946 128.093C45.4228 127.602 45.824 127.251 46.3035 127.161C49.3552 126.679 52.4824 124.743 55.7883 122.665C61.4236 119.155 67.2534 115.524 73.9118 117.132C79.533 118.495 85.2066 123.673 90.8377 132.547C91.019 132.857 91.0853 133.225 90.9733 133.573C90.8736 133.815 90.7225 134.032 90.5438 134.174ZM49.3725 128.901C60.7872 136.449 75.2303 137.862 87.9376 132.65C82.9524 125.077 78.0372 120.689 73.3304 119.539C67.7092 118.175 62.308 121.531 57.1171 124.784C54.5733 126.353 51.9898 127.954 49.3725 128.901Z" fill="#FDB106"/>
<path d="M63.9721 85.887C61.5577 87.9043 59.2538 90.0605 57.033 92.2804C54.7765 94.4962 52.6504 96.8351 50.5757 99.198C46.4024 103.975 42.5769 109.027 38.7906 114.209C41.5763 108.461 44.9674 102.945 48.8921 97.8146C50.8288 95.2374 52.9473 92.8073 55.1487 90.4408C57.366 88.0942 59.7136 85.8707 62.1758 83.7506C64.6696 81.6702 67.2581 79.7089 69.9689 77.942C72.6954 76.195 75.5325 74.587 78.4994 73.2646C84.4018 70.58 90.7569 68.8317 97.1832 68.5176C90.9318 69.9889 85.007 72.2377 79.4683 75.2164C76.7147 76.7256 74.0044 78.3301 71.452 80.133C68.8482 81.912 66.3549 83.83 63.9721 85.887Z" fill="#FDB106"/>
<path d="M106.588 121.544C106.39 121.702 106.144 121.801 105.89 121.808C105.526 121.838 105.181 121.691 104.941 121.429C97.8471 114.139 94.2098 107.568 94.1509 101.911C94.0836 95.0619 98.9346 90.1995 103.623 85.499C106.435 82.6788 109.085 80.0204 110.211 77.116C110.391 76.6491 110.843 76.3216 111.33 76.3231C111.837 76.3087 112.308 76.6151 112.509 77.0712C118.812 91.7625 116.608 108.715 106.795 121.315C106.711 121.414 106.648 121.497 106.588 121.544ZM111.187 80.5851C109.671 82.9575 107.49 85.1458 105.368 87.2867C101.046 91.6317 96.5445 96.1188 96.607 101.903C96.6448 106.637 99.7025 112.275 105.689 118.662C113.68 107.641 115.722 93.3777 111.187 80.5851Z" fill="#FDB106"/>
<path d="M51.3184 121.812C52.2077 121.137 53.7079 120.171 54.7795 119.481L52.8105 116.801C51.8928 117.725 50.8396 118.887 50.5644 119.559C50.2133 120.422 50.801 121.283 51.3184 121.812Z" fill="#FDB106"/>
<path d="M58.6202 117.301C60.9721 116.306 61.1982 116.223 62.7006 115.871C62.8711 115.8 63.0615 115.714 63.2321 115.643L60.9772 111.829L56.3436 114.153L58.6202 117.301Z" fill="#FDB106"/>
<path d="M70.0517 109.507C68.3068 108.82 66.1894 109.499 64.9956 109.995L67.0866 114.295C69.2274 113.727 71.3912 113.432 73.5225 113.423C73.122 112.185 72.1964 110.329 70.0517 109.507Z" fill="#FDB106"/>
<path d="M101.069 79.395C100.352 79.5118 98.9832 80.2763 97.876 80.9624L100.043 83.4842C100.957 82.5955 102.236 81.3514 103.094 80.6368C102.676 80.0295 101.989 79.2472 101.069 79.395Z" fill="#FDB106"/>
<path d="M94.5003 83.8087L91.1929 87.8001L94.4007 90.8557C94.5081 90.7055 94.6154 90.5553 94.7427 90.3893C95.4241 89.0048 95.5554 88.8031 97.0549 86.7357L94.5003 83.8087Z" fill="#FDB106"/>
<path d="M89.9007 100.398C90.39 98.3232 91.1644 96.2814 92.2 94.3235L88.4811 91.3179C87.7492 92.3536 86.5908 94.2795 86.8667 96.1342C87.2048 98.3932 88.7855 99.7288 89.9007 100.398Z" fill="#FDB106"/>
</g>
<defs>
<clipPath id="clip0_1401_1808">
<rect width="60" height="88" fill="white" transform="translate(248)"/>
</clipPath>
<clipPath id="clip1_1401_1808">
<rect width="221" height="72" fill="white" transform="translate(101 195)"/>
</clipPath>
<clipPath id="clip2_1401_1808">
<rect width="101.613" height="101.613" fill="white" transform="translate(0.802734 86.2466) rotate(-38.4937)"/>
</clipPath>
</defs>
</svg>
