<svg width="65" height="65" viewBox="0 0 65 65" fill="none" xmlns="http://www.w3.org/2000/svg">
<circle cx="32.5" cy="32.5" r="32.5" fill="url(#paint0_linear_687_614)"/>
<path d="M24.4662 17.36C25.015 17.4412 25.5692 17.4805 26.124 17.4775C28.1467 17.4775 30.856 17.0136 31.8643 15.3558C32.2748 14.6438 32.4246 13.8111 32.288 13.0007C32.1514 12.1902 31.737 11.4526 31.1158 10.9145C30.499 10.3812 29.7254 10.0631 28.9119 10.0085C28.0983 9.95377 27.2891 10.1654 26.6065 10.6114C26.055 10.8845 25.6216 11.3489 25.3871 11.9179C25.1527 12.487 25.1332 13.1218 25.3322 13.7042C25.4826 14.165 25.7846 14.5613 26.1889 14.8286C26.5933 15.0959 27.0762 15.2185 27.5591 15.1764C27.6534 15.171 27.7457 15.1467 27.8305 15.1049C27.9152 15.0631 27.9907 15.0046 28.0525 14.9331C28.1142 14.8615 28.1609 14.7783 28.1899 14.6883C28.2188 14.5984 28.2294 14.5035 28.2209 14.4094C28.1919 14.218 28.0886 14.0458 27.9334 13.93C27.7783 13.8142 27.5838 13.7642 27.392 13.7908C27.0951 13.8217 26.8601 13.5434 26.7735 13.2588C26.6716 12.9789 26.6787 12.6709 26.7932 12.3959C26.9078 12.1209 27.1215 11.8991 27.392 11.7743C28.7591 11.0134 29.6684 11.533 30.0828 11.9104C30.4679 12.2447 30.7265 12.7011 30.8154 13.2033C30.9043 13.7054 30.8182 14.2229 30.5715 14.6692C29.7859 15.9373 26.5693 16.296 24.7136 15.9867C24.5237 15.9496 24.3267 15.9875 24.1641 16.0924C24.0015 16.1974 23.8858 16.3612 23.8415 16.5496C23.8267 16.6442 23.8313 16.7408 23.8551 16.8336C23.8789 16.9263 23.9213 17.0132 23.9797 17.089C24.0382 17.1649 24.1115 17.228 24.1951 17.2746C24.2787 17.3211 24.371 17.3502 24.4662 17.36Z" fill="#333331"/>
<path d="M39.3811 17.4775C39.938 17.4807 40.4942 17.4414 41.0451 17.36C41.1398 17.3494 41.2314 17.3198 41.3143 17.2729C41.3972 17.226 41.4698 17.1627 41.5276 17.087C41.5854 17.0113 41.6272 16.9246 41.6506 16.8323C41.674 16.7399 41.6785 16.6438 41.6637 16.5496C41.6193 16.3625 41.5046 16.1997 41.3433 16.0949C41.1821 15.9901 40.9867 15.9514 40.7977 15.9867C38.942 16.296 35.744 15.9373 34.9707 14.6692C34.724 14.2229 34.6379 13.7054 34.7268 13.2033C34.8158 12.7012 35.0744 12.2448 35.4594 11.9104C35.8739 11.533 36.7832 11.0134 38.1502 11.7743C38.4207 11.8991 38.6344 12.121 38.749 12.3959C38.8636 12.6709 38.8706 12.9789 38.7688 13.2589C38.6636 13.5434 38.4224 13.8218 38.1502 13.7908C37.9584 13.7642 37.7639 13.8142 37.6088 13.93C37.4537 14.0458 37.3504 14.218 37.3213 14.4094C37.3129 14.5035 37.3234 14.5984 37.3524 14.6884C37.3813 14.7783 37.428 14.8616 37.4898 14.9331C37.5515 15.0047 37.627 15.0631 37.7118 15.1049C37.7965 15.1467 37.8888 15.171 37.9832 15.1764C38.461 15.2113 38.9368 15.0853 39.3347 14.8185C39.7326 14.5517 40.0299 14.1595 40.1791 13.7042C40.3781 13.1219 40.3586 12.487 40.1242 11.9179C39.8897 11.3489 39.4563 10.8845 38.9048 10.6114C38.219 10.1696 37.4079 9.96321 36.5942 10.0235C35.7806 10.0837 35.0088 10.4074 34.3955 10.9454C33.7733 11.4829 33.3581 12.2206 33.2215 13.0313C33.0849 13.842 33.2353 14.675 33.647 15.3867C34.6553 17.0136 37.3646 17.4775 39.3811 17.4775Z" fill="#333331"/>
<path d="M14.9536 25.0426C15.0708 25.0449 15.1872 25.0212 15.2942 24.973C15.4011 24.9249 15.4961 24.8536 15.5721 24.7642C15.6154 24.7024 20.4464 18.8755 32.7684 18.8755C45.0903 18.8755 49.9027 24.6838 49.9708 24.7642C50.0456 24.855 50.1404 24.9272 50.2476 24.9755C50.3549 25.0238 50.4718 25.0467 50.5893 25.0426C50.7492 25.0439 50.9053 24.9941 51.0347 24.9003C51.1125 24.8499 51.1788 24.7836 51.2293 24.7059C51.2799 24.6282 51.3135 24.5407 51.3281 24.4492C51.3427 24.3576 51.3379 24.264 51.314 24.1744C51.2901 24.0848 51.2476 24.0013 51.1894 23.9292C50.9481 23.6632 45.8264 17.4837 32.756 17.4837C19.6856 17.4837 14.5639 23.6694 14.3535 23.9292C14.2953 24.0013 14.2528 24.0848 14.2289 24.1744C14.205 24.264 14.2002 24.3576 14.2148 24.4492C14.2294 24.5407 14.263 24.6282 14.3136 24.7059C14.3641 24.7836 14.4304 24.8499 14.5082 24.9003C14.6376 24.9941 14.7937 25.0439 14.9536 25.0426Z" fill="#333331"/>
<path d="M51.4499 31.2158C48.2828 24.226 41.5528 20.7001 32.2742 20.9475C22.8843 21.1764 16.2595 24.2321 13.0986 31.2158C10.1232 37.7974 10.6243 42.9686 12.6594 46.3955C14.144 48.8698 16.5873 49.309 20.3729 49.309H44.1755C47.9673 49.309 50.4045 48.8698 51.8891 46.3955C53.9551 42.9501 54.4252 37.7974 51.4499 31.2158Z" fill="#333331"/>
<path d="M17.105 41.3666C16.0535 37.3892 16.672 33.1459 18.2494 27.3746C18.2494 27.3746 13.0967 35.7438 14.606 41.8429C15.138 44.0141 16.4246 46.0059 19.2143 46.0059H23.8536C23.8536 46.0059 18.1752 45.3441 17.105 41.3666Z" fill="#FDB106"/>
<path d="M47.26 27.3746C48.8374 33.1459 49.4559 37.3892 48.4044 41.3666C47.3528 45.3441 41.6558 46.0059 41.6558 46.0059H46.295C49.0848 46.0059 50.3652 44.0141 50.9034 41.8429C52.4127 35.7438 47.26 27.3746 47.26 27.3746Z" fill="#FDB106"/>
<defs>
<linearGradient id="paint0_linear_687_614" x1="0" y1="65" x2="65" y2="65" gradientUnits="userSpaceOnUse">
<stop stop-color="#FFBB24"/>
<stop offset="1" stop-color="#FDB003"/>
</linearGradient>
</defs>
</svg>
