<svg width="65" height="65" viewBox="0 0 65 65" fill="none" xmlns="http://www.w3.org/2000/svg">
<circle cx="32.5" cy="32.5" r="32.5" fill="url(#paint0_linear_687_637)"/>
<g clip-path="url(#clip0_687_637)">
<path d="M39.4162 19.4804H25.0505C24.5633 19.5089 24.1054 19.7223 23.7705 20.0769C23.4356 20.4315 23.249 20.9006 23.249 21.388C23.249 21.8755 23.4356 22.3446 23.7705 22.6992C24.1054 23.0538 24.5633 23.2672 25.0505 23.2957H39.4162C39.6764 23.3109 39.937 23.2728 40.182 23.1838C40.4269 23.0948 40.6511 22.9568 40.8407 22.7781C41.0303 22.5995 41.1814 22.384 41.2847 22.145C41.3879 21.906 41.4412 21.6484 41.4412 21.388C41.4412 21.1277 41.3879 20.8701 41.2847 20.6311C41.1814 20.392 41.0303 20.1766 40.8407 19.998C40.6511 19.8193 40.4269 19.6813 40.182 19.5923C39.937 19.5033 39.6764 19.4652 39.4162 19.4804Z" fill="#333331"/>
<path d="M41.3228 28.5457C41.3237 28.295 41.275 28.0467 41.1796 27.8149C41.0841 27.5831 40.9438 27.3724 40.7667 27.1949C40.5895 27.0173 40.3791 26.8765 40.1473 26.7804C39.9155 26.6843 39.6671 26.6348 39.4161 26.6348H25.0505C24.543 26.6348 24.0564 26.8361 23.6976 27.1945C23.3388 27.5528 23.1372 28.0389 23.1372 28.5457C23.1372 29.0525 23.3388 29.5385 23.6976 29.8969C24.0564 30.2552 24.543 30.4565 25.0505 30.4565H39.4161C39.6671 30.4565 39.9155 30.4071 40.1473 30.311C40.3791 30.2148 40.5895 30.074 40.7667 29.8965C40.9438 29.7189 41.0841 29.5082 41.1796 29.2764C41.275 29.0446 41.3237 28.7963 41.3228 28.5457Z" fill="#333331"/>
<path d="M32.2461 37.6109C32.5063 37.6261 32.7669 37.588 33.0118 37.499C33.2568 37.41 33.481 37.272 33.6706 37.0933C33.8602 36.9147 34.0113 36.6993 34.1145 36.4602C34.2178 36.2212 34.271 35.9636 34.271 35.7033C34.271 35.4429 34.2178 35.1853 34.1145 34.9463C34.0113 34.7073 33.8602 34.4918 33.6706 34.3132C33.481 34.1345 33.2568 33.9965 33.0118 33.9075C32.7669 33.8185 32.5063 33.7804 32.2461 33.7956H25.0632C24.576 33.8241 24.1181 34.0375 23.7832 34.3921C23.4483 34.7467 23.2617 35.2158 23.2617 35.7033C23.2617 36.1907 23.4483 36.6598 23.7832 37.0144C24.1181 37.369 24.576 37.5824 25.0632 37.6109H32.2461Z" fill="#333331"/>
<path d="M46.6903 44.1065L44.6856 45.4109V50.1587H19.82V15.8152H44.6726V23.3609L48.4925 16.7478V13.9109C48.4925 13.4041 48.291 12.918 47.9322 12.5597C47.5734 12.2013 47.0867 12 46.5793 12H17.9132C17.4058 12 16.9192 12.2013 16.5604 12.5597C16.2016 12.918 16 13.4041 16 13.9109V52.0891C16 52.5959 16.2016 53.082 16.5604 53.4403C16.9192 53.7987 17.4058 54 17.9132 54H46.5793C47.0867 54 47.5734 53.7987 47.9322 53.4403C48.291 53.082 48.4925 52.5959 48.4925 52.0891V41.5696L47.5849 43.1478C47.362 43.53 47.0563 43.8575 46.6903 44.1065Z" fill="#333331"/>
<path d="M57.9805 20.8435C57.9414 20.6674 57.5365 19.1282 55.1074 17.7261C52.6783 16.3239 51.1307 16.7413 50.961 16.8C50.7348 16.8714 50.5437 17.025 50.4255 17.2304L38.4759 37.8978C38.4032 38.0257 38.3608 38.1685 38.3518 38.3152L37.9013 45.7761C37.8918 45.9528 37.9316 46.1287 38.0161 46.2842C38.1006 46.4398 38.2265 46.5689 38.38 46.6574C38.5335 46.7458 38.7085 46.7901 38.8856 46.7854C39.0627 46.7806 39.235 46.727 39.3835 46.6304L45.6261 42.5152C45.7487 42.4322 45.8513 42.3231 45.9264 42.1956L57.8761 21.5282C57.9945 21.3208 58.0318 21.0768 57.9805 20.8435ZM41.793 43.3043C41.1196 42.7618 40.3692 42.3222 39.5664 42L39.697 39.7696C40.4679 39.8901 41.2071 40.1628 41.8714 40.5717C42.559 40.9435 43.1669 41.4465 43.6606 42.0522L41.793 43.3043Z" fill="#333331"/>
<path d="M29.3273 46.4348C29.3861 46.8196 29.8301 46.937 30.1305 47.087C30.4309 47.237 30.7835 46.9761 30.9925 46.8652C32.4551 46.1543 34.4272 46.9891 35.9878 46.9891C36.1783 46.9891 36.361 46.9135 36.4957 46.779C36.6304 46.6445 36.7061 46.462 36.7061 46.2717C36.7061 46.0815 36.6304 45.899 36.4957 45.7645C36.361 45.6299 36.1783 45.5543 35.9878 45.5543C34.166 45.5543 32.651 45.0978 30.8488 45.3913C30.8377 45.2351 30.7859 45.0845 30.6986 44.9543C30.5947 44.7314 30.4219 44.5478 30.2056 44.4304C29.9893 44.3129 29.7409 44.268 29.4971 44.3022C29.4725 44.2312 29.4396 44.1633 29.3992 44.1C29.352 44.019 29.2879 43.9492 29.2113 43.8951C29.1347 43.8411 29.0473 43.8042 28.9551 43.787C29.4579 42.9065 29.7844 41.9739 29.4514 41.2239C29.3858 41.1102 29.2903 41.0166 29.1751 40.9534C29.06 40.8901 28.9297 40.8596 28.7984 40.8652C27.8451 40.8652 27.0223 41.837 26.4085 42.437C24.8919 43.9786 23.4845 45.6239 22.1967 47.3609C21.6352 48.0913 22.8824 48.8022 23.4374 48.0848C24.5961 46.5689 25.8387 45.1188 27.1594 43.7413C26.8395 44.263 26.5064 44.7783 26.1408 45.2739C25.6314 46.063 26.846 46.7283 27.3814 45.9978C27.4996 45.8167 27.6555 45.6632 27.8385 45.5478L27.7341 45.8087C27.704 45.8633 27.6779 45.92 27.6557 45.9783C27.3357 46.7739 28.5307 47.1456 28.9617 46.5261C29.0708 46.3665 29.1711 46.201 29.262 46.0304C29.2708 46.167 29.2927 46.3024 29.3273 46.4348Z" fill="#333331"/>
<path d="M39.5664 38.0283L51.3332 17.8696C51.3332 17.8696 54.9638 18.763 56.4983 21L45.3127 41.563C43.8376 39.7868 41.8184 38.5447 39.5664 38.0283Z" fill="#FDB106"/>
</g>
<defs>
<linearGradient id="paint0_linear_687_637" x1="0" y1="65" x2="65" y2="65" gradientUnits="userSpaceOnUse">
<stop stop-color="#FFBB24"/>
<stop offset="1" stop-color="#FDB003"/>
</linearGradient>
<clipPath id="clip0_687_637">
<rect width="42" height="42" fill="white" transform="translate(16 12)"/>
</clipPath>
</defs>
</svg>
