<svg width="65" height="65" viewBox="0 0 65 65" fill="none" xmlns="http://www.w3.org/2000/svg">
<circle cx="32.5" cy="32.5" r="32.5" fill="url(#paint0_linear_687_625)"/>
<path d="M54.3245 32.5C54.3245 44.3741 44.626 54 32.6623 54C20.6985 54 11 44.3741 11 32.5C11 20.6259 20.6985 11 32.6623 11C37.9104 11 42.7226 12.8523 46.4714 15.9342L42.6961 18.4746C39.8646 16.4756 36.4018 15.3 32.6623 15.3C23.0913 15.3 15.3325 23.0007 15.3325 32.5C15.3325 41.9993 23.0913 49.7 32.6623 49.7C42.2332 49.7 49.9921 41.9993 49.9921 32.5C49.9921 29.5444 49.2409 26.7629 47.9178 24.3333L51.5189 21.9101C53.3048 25.036 54.3245 28.6498 54.3245 32.5Z" fill="#333331"/>
<path d="M28.8858 28.333C29.8236 29.1368 31.5146 31.7709 32.2429 32.9875C35.9583 27.2369 37.7821 24.8204 43.4186 20.763C49.0551 16.7055 56.4852 14.5049 60 13.9723C52.9569 17.0081 46.5244 22.7313 42.92 27.0303C39.3156 31.3293 34.2127 39.2924 31.612 43.7577L29.6184 39.8003C28.9189 38.4233 27.233 35.3083 26.0858 33.8642C24.9386 32.4201 22.39 30.4622 21.2591 29.6638C21.2591 28.6918 21.5038 27.7544 22.0634 26.9907C22.6231 26.227 23.9172 25.9842 25.4562 26.2619C26.9951 26.5396 27.7134 27.3283 28.8858 28.333Z" fill="#333331"/>
<defs>
<linearGradient id="paint0_linear_687_625" x1="0" y1="65" x2="65" y2="65" gradientUnits="userSpaceOnUse">
<stop stop-color="#FFBB24"/>
<stop offset="1" stop-color="#FDB003"/>
</linearGradient>
</defs>
</svg>
