<svg width="220" height="27" viewBox="0 0 220 27" fill="none" xmlns="http://www.w3.org/2000/svg">
<path d="M0.0927734 26.1652H13.9809L17.0815 13.075H3.19397L0.0927734 26.1652Z" fill="#FDB106"/>
<path d="M17.0815 13.0923H30.9696L34.0708 0.00216675H20.1827L17.0815 13.0923Z" fill="#FDB106"/>
<path d="M34.0688 26.1641L40.1853 0H55.6254C61.2446 0 63.6577 3.37392 63.6577 6.51186C63.6577 9.8469 60.7038 12.9065 57.4164 13.1798C60.1217 13.8872 61.3695 16.1611 61.3695 18.3573C61.3695 21.8095 58.8303 26.1641 51.505 26.1641H34.0688ZM53.0037 17.7298C53.0037 16.8664 52.3798 16.2389 51.4219 16.2389H44.8053L44.0135 19.5739H50.6319C52.0481 19.5745 53.0037 18.8282 53.0037 17.7298ZM54.7116 7.88508C54.7116 7.17768 54.212 6.58962 53.2129 6.58962H47.1354L46.3453 9.64926H52.6715C54.2539 9.64926 54.7116 8.70804 54.7116 7.88508Z" fill="white"/>
<path d="M65.3696 17.064C65.3696 16.7497 65.494 15.808 65.577 15.417L69.1984 0H77.7303L74.1507 15.2194C74.1095 15.4165 74.0676 15.7685 74.0676 16.1611C74.1089 17.847 75.5664 19.7305 78.7295 19.7305C82.1412 19.7305 83.9304 17.7298 84.5125 15.2194L88.0921 0H96.6239L93.0025 15.3776C91.5473 21.6923 87.6756 26.635 78.7289 26.635C69.6562 26.635 65.3696 22.673 65.3696 17.064Z" fill="white"/>
<path d="M102.414 26.1641L104.829 15.7685L98.1279 0H107.159L110.239 8.82522L117.397 0H127.261L113.235 15.7685L110.821 26.1641H102.414Z" fill="white"/>
<path d="M128.596 26.1641L133.09 6.90444H125.641L127.264 0H150.529L148.906 6.90444H141.497L137.003 26.1641H128.596Z" fill="#FDB106"/>
<path d="M167.781 26.1641L167.488 23.1044H157.501L155.793 26.1641H145.848L162.203 0H172.774L176.894 26.1641H167.781ZM166.074 7.76628L161.371 16.2005H166.864L166.074 7.76628Z" fill="#FDB106"/>
<path d="M192.688 26.1641L189.108 18.6327L182.533 26.1641H172.213L184.99 12.2769L178.953 0H188.401L191.523 6.98274L197.308 0H207.67L195.685 13.1798L202.178 26.1641H192.688Z" fill="#FDB106"/>
<path d="M205.436 26.1641L211.553 0H219.961L213.844 26.1641H205.436Z" fill="#FDB106"/>
</svg>
