<svg width="26" height="30" viewBox="0 0 26 30" fill="none" xmlns="http://www.w3.org/2000/svg">
<path d="M6.22271 6.59787L6.55887 6.29948V5.88664H7.34762H16.0617H16.5088L16.8069 5.55343L19.6064 2.4246L20.881 1H21.8239C23.556 1 25 2.44403 25 4.25858V25.7415C25 27.556 23.556 29 21.8239 29H4.17609C2.44391 29 1 27.556 1 25.7415V11.2337L6.22271 6.59787ZM22.3167 25.4041L23.0425 24.6909L22.3168 23.9776L19.873 21.5758V13.5916L22.3167 11.1901L23.0425 10.4769L22.3168 9.76368L21.052 8.5206L20.3512 7.83172L19.6502 8.52052L17.199 10.9291H9.03892L6.58797 8.52054L5.88698 7.83168L5.18607 8.52061L3.92137 9.76369L3.19571 10.4769L3.92145 11.1901L6.36533 13.5917V21.5757L3.92141 23.9776L3.19568 24.6908L3.92145 25.4041L5.18614 26.6469L5.88708 27.3357L6.58799 26.6468L9.0394 24.2377H17.1987L19.6501 26.6468L20.351 27.3357L21.052 26.6469L22.3167 25.4041Z" stroke="#FDB106" stroke-width="2"/>
</svg>
