<svg width="32" height="32" viewBox="0 0 32 32" fill="none" xmlns="http://www.w3.org/2000/svg">
<path d="M19.2026 23.1972L19.2025 23.1972C18.1878 23.6488 17.1097 23.878 16.0043 23.878C12.8939 23.878 10.0677 22.043 8.80321 19.2015L8.8031 19.2013C7.03841 15.2328 8.82836 10.5681 12.7988 8.80199L19.2026 23.1972ZM19.2026 23.1972C23.1711 21.4307 24.9643 16.7668 23.1984 12.7975L23.1983 12.7974M19.2026 23.1972L23.1983 12.7974M23.1983 12.7974C21.9339 9.95598 19.1079 8.12027 15.9973 8.12027C14.892 8.12027 13.8143 8.34964 12.7994 8.80171L23.1983 12.7974ZM26.5121 8.55915L26.5114 8.56104L28.6574 13.3833C28.6576 13.3834 28.6579 13.3835 28.6581 13.3836C29.3429 13.647 30.0853 13.6951 30.7972 13.5386C31.0376 14.9788 31.0643 16.4451 30.8771 17.9027C30.1334 17.761 29.3632 17.8453 28.666 18.1555C26.7857 18.9916 25.9383 21.2008 26.7728 23.0809C27.0747 23.7636 27.5715 24.3305 28.2016 24.7237C27.35 25.9178 26.3272 26.9779 25.158 27.8767C24.7297 27.2331 24.1271 26.7391 23.4065 26.4612L23.4036 26.4601C22.9789 26.2979 22.5293 26.2115 22.069 26.2115C20.5316 26.2115 19.135 27.1718 18.5833 28.6054C18.3122 29.3083 18.2692 30.0677 18.4435 30.7992C17.6437 30.932 16.8262 31 16.0145 31C15.3654 31 14.7071 30.956 14.0574 30.8705C14.2112 30.1088 14.1293 29.3283 13.8119 28.6149C13.2127 27.2675 11.8735 26.3989 10.3995 26.3989C9.87589 26.3989 9.36538 26.5085 8.88538 26.7213L8.8836 26.7221C8.19698 27.0282 7.62722 27.5283 7.23212 28.1675C6.03906 27.3114 4.98171 26.2833 4.08603 25.1098C4.73246 24.6804 5.22657 24.0766 5.50482 23.3559L5.50566 23.3538C5.86157 22.4256 5.83619 21.4082 5.43149 20.4988L5.4313 20.4984C5.02704 19.5911 4.28968 18.8897 3.36072 18.5329L3.36049 18.5328C2.66651 18.2664 1.91346 18.2183 1.18998 18.3855C0.956742 16.9484 0.938058 15.4794 1.13507 14.0145C1.87984 14.1565 2.65158 14.0722 3.35021 13.7628L3.35165 13.7621C4.26045 13.3579 4.96225 12.6199 5.31896 11.6907L5.319 11.6906C5.67554 10.7616 5.64805 9.74419 5.24395 8.83564L5.24391 8.83556C4.94619 8.16635 4.46384 7.60619 3.84767 7.21246C4.70266 6.02692 5.72454 4.97634 6.88808 4.08826C7.31564 4.70919 7.90886 5.18451 8.61104 5.45455L8.61204 5.45494C9.04021 5.61908 9.4901 5.70463 9.94995 5.70463C11.4862 5.70463 12.8834 4.74474 13.4336 3.30906C13.6937 2.63262 13.7494 1.90155 13.5967 1.19223C15.0206 0.959651 16.4967 0.937599 17.9441 1.12891C17.812 1.86409 17.9004 2.61498 18.2052 3.30071L18.2054 3.30116C18.8044 4.64709 20.1416 5.51712 21.6169 5.51712C22.142 5.51712 22.6527 5.40682 23.1314 5.19378C23.7952 4.89918 24.3522 4.42244 24.7449 3.81377C25.9299 4.66328 26.9829 5.68037 27.8749 6.8395C27.2562 7.26716 26.7821 7.85902 26.5121 8.55915Z" stroke="#FDB106" stroke-width="2"/>
</svg>
