<svg width="32" height="25" viewBox="0 0 32 25" fill="none" xmlns="http://www.w3.org/2000/svg">
<path d="M9.64643 6.87924L6.84898 4.08197C8.9505 2.45766 11.423 1.43359 14.0574 1.09621V6.71953C13.4512 6.5967 12.8243 6.5322 12.1833 6.5322C11.3055 6.5322 10.4544 6.65328 9.64643 6.87924Z" stroke="#FDB106" stroke-width="2"/>
<path d="M17.9326 1.09621C20.3921 1.41116 22.7101 2.32459 24.7168 3.76592L18.7565 9.2039C18.496 8.95074 18.2209 8.71248 17.9326 8.49048V1.09621Z" stroke="#FDB106" stroke-width="2"/>
<path d="M2.7491 15.9048H1.00013C1.01368 12.5732 2.10556 9.4148 4.11003 6.82182L6.07272 8.78452C4.05685 10.502 2.76777 13.0542 2.7491 15.9048Z" stroke="#FDB106" stroke-width="2"/>
<path d="M29.2796 15.9047L30.8812 14.1413C30.9514 14.7219 30.9882 15.3105 30.9906 15.9047H29.2796Z" stroke="#FDB106" stroke-width="2"/>
<path d="M14.0508 18.7412C14.0508 18.7412 14.0508 18.7412 14.0508 18.7412C14.5713 18.2207 15.2585 17.936 15.9947 17.936C16.7307 17.936 17.4179 18.2207 17.9385 18.7412C19.0096 19.8124 19.0096 21.5575 17.9385 22.6286C17.4179 23.1492 16.7307 23.4338 15.9947 23.4338C15.2585 23.4338 14.5713 23.1491 14.0508 22.6286C12.9798 21.5575 12.9798 19.8124 14.0508 18.7412Z" stroke="#FDB106" stroke-width="2"/>
<path d="M28.3916 5.6582H30.991V8.25776L22.08 18.0694C21.7582 17.318 21.2912 16.614 20.6788 16.0015L20.6787 16.0014C20.0723 15.3951 19.3672 14.9201 18.5996 14.592L28.3916 5.6582Z" stroke="#FDB106" stroke-width="2"/>
</svg>
