<svg width="33" height="33" viewBox="0 0 33 33" fill="none" xmlns="http://www.w3.org/2000/svg">
<path d="M31.2802 20.0353C30.6467 26.3164 25.4807 31.3648 19.1004 31.9423C11.558 32.6251 5.12656 27.162 4.38056 20.0617H3.05131C2.24319 20.0617 1.73811 19.1996 2.14226 18.5101L5.1151 13.4387C5.5192 12.7494 6.52924 12.7494 6.93327 13.4387L9.90556 18.5104C10.3096 19.1997 9.80452 20.0617 8.99646 20.0617H7.83925C8.59103 25.363 13.6009 29.3388 19.3451 28.5094C23.5955 27.8957 27.0432 24.5921 27.7658 20.4203C28.8472 14.1761 23.9697 8.74163 17.8283 8.74163C15.8367 8.74163 13.9145 9.31089 12.2633 10.3889C11.4969 10.8891 10.4346 10.7901 9.87245 10.0736C9.26033 9.29346 9.45144 8.17975 10.2677 7.63673C12.0393 6.45773 14.0476 5.72092 16.1518 5.46435V3.54201H14.7746C14.3008 3.54201 13.9167 3.16361 13.9167 2.69679V1.84521C13.9167 1.37838 14.3008 1 14.7746 1H21.1612C21.635 1 22.0191 1.37838 22.0191 1.84521V2.69679C22.0191 3.16355 21.6351 3.54201 21.1612 3.54201H19.6443V5.48441C26.6809 6.41974 32.0192 12.7041 31.2802 20.0353ZM31.7243 7.24382L29.1374 4.88818C28.7896 4.57132 28.2467 4.59235 27.9251 4.93513L27.2407 5.6645C26.919 6.00726 26.9404 6.54202 27.2884 6.8589L29.8754 9.2145C30.2234 9.53127 30.7662 9.51032 31.0878 9.16754L31.7721 8.43818C32.0937 8.0954 32.0724 7.56064 31.7243 7.24382ZM17.7876 10.4793V18.7457H26.0949C26.095 13.7115 22.2179 10.4793 17.7876 10.4793Z" stroke="#FDB106" stroke-width="2"/>
</svg>
